/* XPM */
static char *affa5fc0b9614731fee53550bb06d048ro2wYqnBEKeFgSLR[] = {
/* columns rows colors chars-per-pixel */
"32 32 143 2 ",
"   c #5D705D",
".  c #61745E",
"X  c #64785F",
"o  c #7C416F",
"O  c #655F63",
"+  c #775B69",
"@  c #7D4271",
"#  c #596A60",
"$  c #676163",
"%  c #6A6D62",
"&  c #6A6A6C",
"*  c #716967",
"=  c #7E6568",
"-  c #7A7F69",
";  c #757E79",
":  c #85476E",
">  c #81546B",
",  c #8B5A6D",
"<  c #9D576F",
"1  c #975E6F",
"2  c #844772",
"3  c #854873",
"4  c #975271",
"5  c #9A5673",
"6  c #955877",
"7  c #9C5C76",
"8  c #965978",
"9  c #9E5E78",
"0  c #A35B6F",
"q  c #A35B70",
"w  c #8A7E6E",
"e  c #8A7574",
"r  c #986876",
"t  c #A36072",
"y  c #AA6274",
"u  c #A36B76",
"i  c #A4627A",
"p  c #AA667B",
"a  c #AD6B7C",
"s  c #B16977",
"d  c #B56D7A",
"f  c #A47176",
"g  c #A47178",
"h  c #BD757E",
"j  c #6C865E",
"k  c #788E5F",
"l  c #76945E",
"z  c #7F9E5E",
"x  c #7EA25C",
"c  c #788569",
"v  c #85A45F",
"b  c #83AA5A",
"n  c #8AAB5D",
"m  c #8FB25E",
"M  c #93B55E",
"N  c #828E68",
"B  c #809960",
"V  c #87997F",
"C  c #86A466",
"Z  c #88A761",
"A  c #95B661",
"S  c #97BA60",
"D  c #9BBB61",
"F  c #98B968",
"G  c #8AA276",
"H  c #97B774",
"J  c #96B47B",
"K  c #BFD46F",
"L  c #BFD570",
"P  c #C0D56E",
"I  c #C0D570",
"U  c #C2D579",
"Y  c #946287",
"T  c #91698E",
"R  c #996888",
"E  c #927182",
"W  c #957A81",
"Q  c #916890",
"!  c #A26D87",
"~  c #A6728B",
"^  c #AC7A8E",
"/  c #B57180",
"(  c #BD7580",
")  c #B27B80",
"_  c #BE7881",
"`  c #B27D8D",
"'  c #C37C84",
"]  c #C17F8B",
"[  c #808E81",
"{  c #A88C80",
"}  c #BA828D",
"|  c #BE918C",
" . c #A6899D",
".. c #B6929E",
"X. c #8CA480",
"o. c #97A294",
"O. c #A1B290",
"+. c #B8B0AE",
"@. c #BFBDAE",
"#. c #BCA4B1",
"$. c #C4868F",
"%. c #CA858A",
"&. c #C38B8E",
"*. c #CC8A8E",
"=. c #C48890",
"-. c #CD8C91",
";. c #CB9092",
":. c #C29D9D",
">. c #D49495",
",. c #D79599",
"<. c #D79A99",
"1. c #D89B9A",
"2. c #C2A6B2",
"3. c #C5ABB3",
"4. c #CFB2B6",
"5. c #D3B5B5",
"6. c #ABC38E",
"7. c #B7C4AA",
"8. c #CBDA87",
"9. c #CEDC8F",
"0. c #CFDD90",
"q. c #CED69D",
"w. c #CEDC9B",
"e. c #D0D89D",
"r. c #C0D2AA",
"t. c #D3CDBA",
"y. c #D9CEBA",
"u. c #CDD3B7",
"i. c #CFD9B7",
"p. c #CED4B8",
"a. c #CFD8B9",
"s. c #D2DEB6",
"d. c #D9D1BA",
"f. c #DDE5B2",
"g. c #D1C5C7",
"h. c #D9CAC7",
"j. c #D1C5C9",
"k. c #DBCBC9",
"l. c #CED4C5",
"z. c #D3DDC5",
"x. c #E0CECA",
"c. c #D6E0C5",
"v. c #E6ECCA",
/* pixels */
"I I I I I I I I I I K I I I K I I I I K I I I I I I I K I I I I ",
"I I I I I I I I I I I I I I I U 8.9.9.9.9.8.U K I I I I I I I I ",
"I I I I I I I I I I I I I I I 8.f.v.v.v.v.f.8.L I I I I I I I I ",
"I I I I I I I I I I I I I U 8.w.s.z.c.z.z.i.w.8.U I I I I I I I ",
"I I I I I I I I I I I K I 8.f.s.6.J J J X.O.a.f.8.I I I I I K I ",
"I I I I I I I I I I I U 8.w.s.r.H b b x l G 7.i.w.8.U I I P I I ",
"I I I I I I I I K I I 8.f.s.6.H F S S A n C G O.i.f.8.P I I I I ",
"I I I I I I I I I U 8.w.s.r.H n S D D A v l j V l.v.9.I I I I I ",
"L I P I I I I I I 8.f.s.6.H F S M M M Z j .   [ l.v.9.P I I I I ",
"I I I I I I I U 8.e.y.@.G x M S M n v k % & ; o.u.f.8.I I I I I ",
"K I I I I I P 8.f.y...W c l n M m v j % + E +.p.w.8.U I I I I I ",
"I I I I L U 8.e.d.4.^ r w N B z z l . O > ! 3.y.e.8.U I I I P I ",
"I I I I I 8.f.y.:.} $.=.| { - X X . # $ , 9 ! ..y.f.8.I I I I I ",
"I I I U 8.e.d.5.} _ -.1.1.&.e * * * * = 1 < 4 ! 2.t.q.8.U I I I ",
"I I I 8.f.d.:.} $.-.,.1.<.;.) f f f g u t q q 7 Y  .t.f.8.L I K ",
"I I I 9.v.x.} a -.1.1.<.>.*.' h h h h d y 0 0 4 o Q j.v.9.I L I ",
"I K I 9.v.x.} a -.1.1.>.%.' _ h h h h d y q 0 4 o T j.v.9.P I I ",
"I I I 9.v.k.` p *.1.>.*.' h h h h h h d y 0 0 4 o T j.v.9.I I I ",
"I I I 9.v.k.^ i $.>.%.' _ h h h h h h d y 0 0 4 @ T j.v.9.I I I ",
"I I I 9.v.h.~ 7 ] *.' h h h h h h h h s y 0 0 4 o T j.v.9.I I I ",
"I K I 9.v.k.~ 5 / ' _ h h h h h h h y y q 0 0 4 o T j.v.9.I I I ",
"I I I 8.f.y...~ a d h h h ( h h h s y 0 q q 5 8 Y  .t.f.8.I K I ",
"I I I U 8.q.y.3.~ 7 d h h h h h y y q 0 0 5 : Y #.t.q.8.U I I L ",
"I I P I I 8.f.y...~ p p p p p i 5 4 4 4 4 6 Y  .t.f.8.I I P I I ",
"I I I I I U 8.q.y.3.R 2 3 3 3 2 @ o o o o Y #.t.q.8.U I L I I I ",
"P I I I I I K 8.f.t. .Q T T T T T T T T T  .t.f.8.K I I I I I I ",
"I I I I I K I U 8.q.t.j.j.j.j.j.g.j.j.j.j.t.q.8.U I I I I K I I ",
"I I I I I I I I I 8.f.v.v.v.v.v.v.v.v.v.v.f.8.I I I I I I I I I ",
"I I I I I I I I I U 8.9.9.9.9.0.9.9.9.9.9.8.U I L I I I I K I I ",
"P I I I I I I I I I I I I I I I I I P I I I I P I I K I K I I I ",
"I I I I K I I I I I I I I I I I K I I I I K I I I I I I I I I I ",
"L I I I I K P I I I I I I I I L I I I I I I I I I I I I I I I L "
};
