/* XPM */
static char *dirt_resized[] = {
/* columns rows colors chars-per-pixel */
"32 32 27 1 ",
"  c #E7CFA3",
". c #E7CEA5",
"X c #E8CFA6",
"o c #EACEA6",
"O c #E7D0A6",
"+ c #E9D0A7",
"@ c #E8D1A7",
"# c #E9D0A8",
"$ c #E8D1A8",
"% c #E9D2A8",
"& c #E8D2A9",
"* c #E9D2A9",
"= c #E9D3AA",
"- c #EAD4AB",
"; c #EBD5AC",
": c #EAD4AD",
"> c #EBD5AE",
", c #ECD6AF",
"< c #EBD5B0",
"1 c #EBD7B2",
"2 c #EDD7B0",
"3 c #EDD7B2",
"4 c #ECD9B1",
"5 c #ECD8B3",
"6 c #EDDAB2",
"7 c #EDD9B4",
"8 c #F0DAB5",
/* pixels */
"XXXXXXXXXXXXXXXXXXXXXXXXXXXXXXXX",
"XXXXXXXXXXXXXXXXXXXXXXXXXXXXXXXX",
"XXXXXXXXXXXXXXXXXXXXXXXXXXXXXXXX",
"XXXXXXXXXXXXXXXXXXXXX XXXXXXXXXX",
"XXXXXXXXXXXXXXXXXXXXXXXXXXXXXXXX",
"XXXXXXXXXXXXXXXXXXXXXXXXXXXXXXXX",
"XXXXXXXXXXXXXXXXXXXXXXXXXXXXXXXX",
"XXXXXXXXXXXXXXXXXXXXXXXXXXXXXXXX",
"XXXXXXXX XXXXXXXXXXXXXXXXXXXXXXX",
"XXXXXXXXXXXXXXXXXXXXXXXXXXXXXXXX",
"XXXXXXXXXXXXXXXXXXXXXXXXXXXXXXXX",
"XXXXXXXXXXXXXXXXXXXXXXXXXXXXXXXX",
"XXXXXXXXXXXXXXXXXXXXXXXXXXXXXXXX",
"XXXXXXXXXXXXX.XO****@XXXXXXXXXXX",
"XXXXXXXXXXXXXX$*>22>&O.XXXXXXXXX",
"XXXXXXXXXXXXXO*-5775;%@XXXXXXXXX",
"XX+XXXXXXoXXX*>577775<*XXXXXXXXX",
"XXXXXXXXXoXXO*>577775>*XXXXXXXXX",
"XXXXXXXXXXXXX@*=4771:*@XXXXXXXXX",
"XXXXXXXXXXXXXX#*>23>*XXXXXXXXXXX",
"XXXXXXX.XXXXXXX@****+XXXXXXXXXXX",
"X.XXX+******@XXXXXXXXXXXXXXXXXXX",
"XXXXO*>2222>*XX+XXXXXXXXXXXXXXXX",
"XXX+*:577775:$@XXXXXXXXXXXXXXXXX",
"XXX*>57877775<*XXXXXXXXXXXXXXXXX",
"XXX*>57777775>*XXXXXXXXXXXXXXXXX",
"XXX+*>176775:*@XXXXXXXXXXXXXXXXX",
"XXXXX*>22,3>*XXXXXXXXXXXXXXXXXXX",
"XXXXX+******++XXXXXXXXXXXXXXXXXX",
"XXXXXXXXXXXXXXXXXXXXXXXXXXXXXXXX",
"+XXXXXXX+XXXXXXXXXXXXXXXXXXXXXXX",
"XX..XXXXXXXXXXXXXXXXXXXXXXXXXXXX"
};
