/* XPM */
static char *grass_resized[] = {
/* columns rows colors chars-per-pixel */
"32 32 35 1 ",
"  c #A8C666",
". c #A9C767",
"X c #ABC667",
"o c #ADC867",
"O c #AFCB67",
"+ c #ACC768",
"@ c #AEC968",
"# c #AFC968",
"$ c #ACCA68",
"% c #AFCA69",
"& c #B0CA69",
"* c #B1CB6A",
"= c #B2CA6A",
"- c #B5CD6B",
"; c #B4CE6B",
": c #B5CD6D",
"> c #B9CF6D",
", c #BBD16D",
"< c #B8D06E",
"1 c #BBD16F",
"2 c #BCD16C",
"3 c #BCD06D",
"4 c #BCD26E",
"5 c #BED36E",
"6 c #BED26F",
"7 c #BFD46F",
"8 c #BFD370",
"9 c #BED470",
"0 c #BFD570",
"q c #BFD571",
"w c #C0D56E",
"e c #C0D570",
"r c #C0D471",
"t c #C2D470",
"y c #C1D671",
/* pixels */
"eeeeeeeeeeeeeeee0eeeeyeee7eeeeew",
"eeeeeeeeeeeeeeeeeeeeeeeeeweeeeee",
"eeeeeeeeeeeeeeeeeeee7eeeeeeeeeee",
"eeeeeeeeeeeeeeeeeeeeeeeeeeeeeeee",
"eeeeeeeeeeeeeeeeee7eeeeeeeeeeeee",
"eeeeeeeeeeeeeeeeyeeeeee6,,8eeeee",
"eeeeeeeeeeeeeeeeeeeeeeq4&=,eeewe",
"eeeeeeeeeeeeeeeeeeeee64-$&,eeeee",
"eeeeeeeeeeete0eeweeee3&@:25eeeee",
"eeeeeeereeet7eeereeee>XX<eeeeeee",
"eeeeeeereeeeeeeeeeeee>X+>ye7eeee",
"eeeeeee6,,5eeeeeyeeee,&*,eeeee77",
"eeeeeee3&&,eeeeeeeeee6,49eeeeeee",
"eeeeeee3#@;,6eeeeyeee77eeee77eee",
"eeeeeee6,-o&1eeeeeeeeeeeeeeeeeee",
"eeeeeyeey>XX>eeeeee6,,60eeeeeeee",
"eeeeeeeee>. >eeeeee,&&,eeeeeeeee",
"eeeeeeeee1&#,e7ee8,-@O,eeeeeeeee",
"eeeeeeeer6,,6eeee,%@-,6eeeeeeeee",
"eeeeeeeereeeeeeee>XX>eeeeeeeeeee",
"eeeeeeeeeeeeeeeee>XX>ee7eeeeeeee",
"eeeeeeeeeeeeeeeey,&&,eeeeeeeeeee",
"eeeeeeeeeeeeeeeee6,,67w0eeeeeeee",
"eeeeeeeeeeeeee0eeeeee0eeeeeeeeee",
"eeeeeeeeeeeeeeeeeeeeeeeeeeeeeeee",
"eeeeeeeeeeeeeeeeeeeeeeeeeeeeeeee",
"eeeeeeeeeeeeeeeeeeeeeeeeeeeeeeee",
"eeeeeeeeeeeeeeeeeeeeeeeeeeeeeeee",
"eeeeeeeeeeeeeeeeeeeeeeeeeeeeeeee",
"eeeeeeeeeeeeeeeeeeeeeeeeeeeeeeee",
"eeeeeeeeeeeeeeeeeeeeeeeeeeeeeeee",
"eeeeeeeeeeeeeeeeeeeeeeeeeeeeeeee"
};
