/* XPM */
static char *house_resized[] = {
/* columns rows colors chars-per-pixel */
"36 36 115 2 ",
"   c #794F5D",
".  c #7D535E",
"X  c #7F5B5D",
"o  c #794F61",
"O  c #795261",
"+  c #7E5E63",
"@  c #7F6163",
"#  c #81535E",
"$  c #86595E",
"%  c #8F625D",
"&  c #95665C",
"*  c #996B5D",
"=  c #A7755B",
"-  c #A8755A",
";  c #AD7F5D",
":  c #815761",
">  c #825862",
",  c #966A61",
"<  c #996B61",
"1  c #9C7265",
"2  c #A67962",
"3  c #A97E65",
"4  c #A57C6A",
"5  c #72875E",
"6  c #748C5F",
"7  c #7F8C5E",
"8  c #7AA357",
"9  c #7CA459",
"0  c #769060",
"q  c #8C955A",
"w  c #81995B",
"e  c #A7845A",
"r  c #AE805E",
"t  c #AD885C",
"y  c #89A45F",
"u  c #82A95B",
"i  c #94AA5E",
"p  c #8FB55E",
"a  c #91B55E",
"s  c #96B95F",
"d  c #96846A",
"f  c #AB8364",
"g  c #B48665",
"h  c #B68962",
"j  c #B88B64",
"k  c #BA8F69",
"l  c #A79C66",
"z  c #A89B66",
"x  c #AF936C",
"c  c #BC9167",
"v  c #B0946D",
"b  c #BD9269",
"n  c #AF8670",
"m  c #B08670",
"M  c #B68C72",
"N  c #B88C73",
"B  c #BC9576",
"V  c #8AA560",
"C  c #97BA60",
"Z  c #9ABA61",
"A  c #A8AF62",
"S  c #ABA66C",
"D  c #A5AE6F",
"F  c #A9AF6F",
"G  c #B5A663",
"H  c #A0BF62",
"J  c #B3B46B",
"K  c #A9AE72",
"L  c #BFA572",
"P  c #ABB570",
"I  c #AFBF74",
"U  c #C19669",
"Y  c #C4996C",
"T  c #C0A474",
"R  c #C6A27E",
"E  c #C9A47F",
"W  c #9EC062",
"Q  c #A4C264",
"!  c #AAC566",
"~  c #AEC867",
"^  c #AAC568",
"/  c #AFC968",
"(  c #B1CB66",
")  c #B4C36C",
"_  c #B9C26E",
"`  c #B3CB6B",
"'  c #BCCB6D",
"]  c #BED36F",
"[  c #AFC072",
"{  c #B2C373",
"}  c #B8C170",
"|  c #B4C873",
" . c #BFD470",
".. c #C0D56E",
"X. c #C0D570",
"o. c #C8A480",
"O. c #CEAC87",
"+. c #CFAD89",
"@. c #D0AA83",
"#. c #CDB683",
"$. c #D7B286",
"%. c #D8B484",
"&. c #D3B68E",
"*. c #D9B789",
"=. c #DBB98B",
"-. c #E0BF92",
";. c #DEC199",
":. c #E1C093",
">. c #E4CBA2",
",. c #E7D0A6",
"<. c #E7D1A9",
"1. c #EAD3AA",
"2. c #EDDAB5",
"3. c #F1DEBA",
"4. c #F1E1BE",
/* pixels */
"X.X...X.X.] X.X. . . .X.X.' } J 1 1 1 1 J _ ' ] X.X.......X.] X...X.X.X.",
"X.X.X.X.X... .X.] ]  .A l v N B =.=.=.=.B N x z S X...] X.X.X.X.X.X.X.X.",
"X.X. .X.X.X.X.X.] 1 1 R @.$.=.#.V V V V #.=.$.O.R 1 1 .. . .X.X.X...X.X.",
"X.X.X.X.' } J 1 1 =.*.$.#.D 9 u ` ! H ( u 9 D #.#.=.*.1 1 J _ ' X.X.X.X.",
"X.X...' v N B =.=.K K 9 Z Z a u H Z C Q u C Q Z 9 K D =.=.B M x ....X.X.",
"X.X.X._ N =.#.V y Z a 9 X./ C u ( H H ) u p ( X.9 C Z V V #.=.N I X.X.X.",
"X.X.X._ f w u u ` ] C 9 / Q a u ( H H ( u V Q ! 8 Z ] / u u w f ' X.X.X.",
"X.X.X.X.J 5 H u ^ / C 9  .` a u H Z Z H u C ` ] 8 Z / ^ u W 6 J X.X.X.X.",
"X.X.X.X...0 Q u ` ] C 8 ^ Q a u ( Q Q ( u a Q ^ 8 Z ` ` u H 0 ] X.X.X.X.",
"X.X.X.X...0 s u ( ` C 9  .) i q g g h g q i ~ X.8 Z | / u Q 0 X.X.X.X.X.",
"X.X.......0 s u ! / C q G L o.O.2.2.2.2.+.o.L G q C ( ^ u Z 0  .X.X.X.X.",
"X.X.X.X...0 Q u ( t e &.;.1.3.3.-.-.;.:.2.4.<.;.&.e r ` u Q 0 ..X.X.X.X.",
"X.......J q A g g 1.1.2.3.>.=.$.O.@.E @.=.=.>.3.2.1.,.g g A 7 ' ..X.X.X.",
"X.X.....B o.O.2.2.<.,.-.=.o.N m $ & & & n N R =.:.,.,.2.2.O.E T ' ] X.X.",
"X.X.X...+.4.2.:.-.=.=.4 1 < % % % % % % % % & 1 f =.=.:.;.2.4.O.' ] X.X.",
"X.X.X.I N =.=.O.@.& & & & & & & & & & & & & & & & & * @.E =.=.N '  .X. .",
"X.X...' v N m 2 3 h h h h h h h h h h h j j h h h h h 3 = m M v '  . .X.",
"X.X.X...' _ > Y Y Y Y Y Y Y Y Y Y Y Y Y Y Y Y Y Y Y Y Y Y $ _ ' X.X. .X.",
"X.X.X...X.X.# ; r ; ; ; r ; ; ; ; r ; ; ; r ; ; ; ; ; ; t #  . .X.X.X.X.",
"X.X.X.X.X.X.: Y U Y Y Y Y Y Y Y Y Y Y Y Y Y Y Y Y Y Y Y Y > X. .X.X.X. .",
"X.X.X.X. .X.> Y Y # > c Y Y Y Y Y Y Y Y Y Y Y U k > > Y Y > X.X.X.X. .X.",
"X. .X.X.X.X.+ ; # % % . ; ; ; * o .     * ; ; ;   $ , O ; O X.X. .X.X.X.",
"X...X.X.X.X.> Y > % % . Y Y 4 $ % % % % $ 4 U Y   & & : Y > X.X.X.X.X.X.",
"X.X.X.X. . .> Y > c b O Y Y : % % % % % % + Y Y : k U > Y > X.X.X.X.X. .",
"X.X.X.X...X.. r ; *.$.g ; ; + % % % % % % . r f h $.%.; ; . X.X.X.X.X.X.",
"X.X.X...X.X.> Y Y Y Y Y Y Y > % % % % & % > Y Y Y Y Y Y Y > X.X.X.X.X.X.",
"X.X.X.X.X.X.> Y Y Y Y Y Y Y > & = = - - & : Y Y Y Y Y Y Y > X. .X.X.X.X.",
"X.X.X.X.X.X.) @ o : O + > > > t Y Y U U ; + @ > + O . O @ ) X. . .X.X.X.",
"X.X.X.X.X.X. .{ @ b 1 D { { { < b c c b < { { { D 1 b @ { ]  . . .X.X.X.",
"X.X.X.X.X.X.] { @ Y 1 P I { { < b k k b , { { { P 1 Y @ { ] ..X.X.X.X.X.",
"X.X.X.X.X.X.] I @ Y 1 F { { { * Y Y Y Y , { { { P 1 Y > I ] X.] X.X.X.X.",
"X.X.X. .X.X.X.| > Y 1 K { { { * U c c b , { { { K 1 Y > | X.X.X.X.X.X.X.",
"X.X.X.X.X.X.X.X.P : d I { { { < U j j U * I | { I d > P X.X.X.X.X.X.X.X.",
"X.X.X.X.X.X.X. .X.....X.X.X.{ < Y Y U U & _  .X.] X.X.X.X...X. .X.X.X.X.",
"X.X.X.X.X...X.X.X.X.X.X.X. .{ < U k k U < |  . . .X.X.X.X.X.X.X.X.X.X.X.",
"X.X.X. . .X.X.X. .X.X.X.X.X.X.S < < * < S  .X.X. . .X.X.X.X.X.X. .X.X.X."
};
