/* XPM */
static char *water_resized[] = {
/* columns rows colors chars-per-pixel */
"32 32 25 1 ",
"  c #A6DBBF",
". c #ABDEBF",
"X c #ACDDBF",
"o c #B1E0BE",
"O c #9AD3C2",
"+ c #9DD3C3",
"@ c #9BD4C1",
"# c #9BD4C3",
"$ c #9AD5C3",
"% c #9DD7C1",
"& c #9FD6C1",
"* c #9CD5C2",
"= c #9FD6C3",
"- c #9AD3C4",
"; c #9DD3C5",
": c #9BD4C5",
"> c #9CD5C4",
", c #9ED4C4",
"< c #9ED8C2",
"1 c #A0D7C0",
"2 c #A0D7C2",
"3 c #A0D7C4",
"4 c #A1D8C1",
"5 c #ACDFC0",
"6 c #B1E0C0",
/* pixels */
"#########################2.o6ooo",
"#########################& .....",
"###############$#########>&22222",
"############:>&2222&>###>#######",
"##########>##& X... &###########",
"###########O#& .... 2###$#######",
"#############>=2222&>########O##",
"######################+########;",
"#O###*>#########################",
"22222&>#################:#:##>&2",
".5... &$#####################& .",
"..... &$####################:& .",
"22222&#######################>&2",
"################################",
"##OO############################",
"################;,=2412&2&>####>",
"#################& ...5.X &#####",
"########:########& ...... 2#####",
"#################>2122212&*#####",
"#######*&22&>#########@@####>>##",
"#####:@% .. &@#+################",
"#####->< .. &@#+################",
"#######>&22&>######@@####:######",
"###O###:#######@####O####>&23222",
"######################+##& ...5.",
"#############>=2222&>####& .....",
"###########O#& .... 2####>212221",
"##########>##& X... &#########@@",
"############:>&2222&>###########",
"###############$################",
"###########################@@###",
"############################O###"
};
