/* XPM */
static char *down1_resized[] = {
/* columns rows colors chars-per-pixel */
"32 32 182 2 ",
"   c #EAE178",
".  c #EAE17A",
"X  c #615293",
"o  c #615593",
"O  c #665893",
"+  c #695A95",
"@  c #6A5B94",
"#  c #6A5B96",
"$  c #736394",
"%  c #736296",
"&  c #766695",
"*  c #766697",
"=  c #73669E",
"-  c #74679F",
";  c #7E6D99",
":  c #7E739B",
">  c #7D729C",
",  c #776DAA",
"<  c #7F73A5",
"1  c #867597",
"2  c #8B7B96",
"3  c #8A7A97",
"4  c #857498",
"5  c #877698",
"6  c #8B729A",
"7  c #8C719A",
"8  c #867C9F",
"9  c #8A7999",
"0  c #8A7B98",
"q  c #8B7B98",
"w  c #8D799E",
"e  c #907D9B",
"r  c #8074A6",
"t  c #867CA1",
"y  c #857CAB",
"u  c #8179AC",
"i  c #827AAD",
"p  c #837BAE",
"a  c #897DAB",
"s  c #887CAC",
"d  c #897DAD",
"f  c #8A819C",
"g  c #8F809F",
"h  c #948099",
"j  c #95819A",
"k  c #97809A",
"l  c #958D9C",
"z  c #9F8D9B",
"x  c #9E8E9B",
"c  c #9D8A9D",
"v  c #A8949D",
"b  c #AE9B9F",
"n  c #B19D9E",
"m  c #BDB493",
"M  c #8E83A3",
"N  c #8E83A5",
"B  c #9082A3",
"V  c #9086A1",
"C  c #9085A3",
"Z  c #9187A2",
"A  c #9986A2",
"S  c #978EA1",
"D  c #9D8EA3",
"F  c #9B8DA7",
"G  c #9C8CA7",
"H  c #9184AF",
"J  c #968DA8",
"K  c #9C94AC",
"L  c #9891B0",
"P  c #9992B1",
"I  c #A694A2",
"U  c #A896A4",
"Y  c #A69FA7",
"T  c #A096AF",
"R  c #B39FA0",
"E  c #B49EA0",
"W  c #A094B8",
"Q  c #B5A1A0",
"!  c #BBA7A0",
"~  c #B6B1AD",
"^  c #B7B2AE",
"/  c #BEBAAF",
"(  c #A9A0BF",
")  c #B1AAB2",
"_  c #C0B796",
"`  c #C1ABA0",
"'  c #C4B1A0",
"]  c #C7B0A2",
"[  c #C9B2A2",
"{  c #C8B3A2",
"}  c #CBB5A0",
"|  c #C9B4A3",
" . c #CCB5A3",
".. c #CDB7A2",
"X. c #C9B2A4",
"o. c #C0B9AF",
"O. c #C4BCAF",
"+. c #D3BBA3",
"@. c #D6BEA2",
"#. c #D4BCA4",
"$. c #D2BAB8",
"%. c #D2BABA",
"&. c #E7B5AC",
"*. c #E8B8AE",
"=. c #EBE380",
"-. c #ECE89E",
";. c #DCC3A4",
":. c #DFC7A5",
">. c #CAC4B4",
",. c #CECBB8",
"<. c #CECBBA",
"1. c #D3C5BA",
"2. c #D4C6BB",
"3. c #D7D2BE",
"4. c #D9D5BA",
"5. c #E7CFA3",
"6. c #E1C9A5",
"7. c #E4CAA5",
"8. c #E6CDA5",
"9. c #E5CEA5",
"0. c #E7CEA5",
"q. c #E6CFA5",
"w. c #E8CFA6",
"e. c #E8CFA7",
"r. c #EACEA6",
"t. c #E7D0A6",
"y. c #E8D0A4",
"u. c #E9D0A7",
"i. c #EDCFB3",
"p. c #EDCAB4",
"a. c #EDCAB6",
"s. c #ECCEB4",
"d. c #EEDAB7",
"f. c #E1DFB9",
"g. c #EFEBA4",
"h. c #EFEAA6",
"j. c #EFECA7",
"k. c #E2E0BA",
"l. c #E4E2B9",
"z. c #E5E3BC",
"x. c #EFE1BA",
"c. c #E8E6BD",
"v. c #EFEFBD",
"b. c #EEEDBF",
"n. c #EFEEBE",
"m. c #F1EFB4",
"M. c #F0E1BA",
"N. c #F1E8BD",
"B. c #F0EFBF",
"V. c #F1F1BF",
"C. c #F2F2BE",
"Z. c #F4F2BF",
"A. c #D9D1DC",
"S. c #DAD2DD",
"D. c #DCD5DD",
"F. c #DED4DD",
"G. c #DDD6DD",
"H. c #DCD4DF",
"J. c #DDD9DA",
"K. c #DED8DA",
"L. c #E2DAD7",
"P. c #E4DDD5",
"I. c #E3DBD8",
"U. c #E1DCD8",
"Y. c #EBE8C7",
"T. c #EDEAC7",
"R. c #EEECC5",
"E. c #EFEDC6",
"W. c #EBE8C9",
"Q. c #F3E4C3",
"!. c #F3EAC1",
"~. c #F2EBC1",
"^. c #F2EFC4",
"/. c #F1F0C0",
"(. c #F3F1C0",
"). c #F3F3C1",
"_. c #F1F0C2",
"`. c #F4F0C1",
"'. c #F5F1C1",
"]. c #F4F2C1",
"[. c #F5F3C2",
"{. c #F6F2C2",
/* pixels */
"q.w.w.w.w.w.w.t.w.r.u.w.w.w.u.w.w.u.w.w.w.u.r.w.t.w.w.w.w.w.w.q.",
"w.y.w.w.w.w.w.r.w.w.w.w.u.w.w.w.w.w.w.u.w.w.w.w.r.w.w.w.w.w.y.w.",
"y.w.w.y.w.w.w.t.w.r.w.w.w.w.w.w.w.w.w.w.w.w.r.w.t.w.w.w.y.w.w.y.",
"w.w.w.u.y.w.w.t.w.r.w.w.w.w.w.w.w.w.w.w.w.w.r.w.t.w.w.y.u.w.w.w.",
"u.w.w.u.w.w.w.u.} j j k c @.w.w.w.w.@.c k j j } u.w.w.w.u.w.w.u.",
"w.y.w.5.w.w.w...b 8 8 t f Q #.w.w.#.Q f t 8 8 b ..w.w.w.5.w.y.w.",
"w.w.w.w.w.0.w.e Z b.b.b.f.: z w.w.z : f.b.b.b.Z e w.0.w.w.w.w.w.",
"w.w.y.w.w.w.w.0 w p.a.d.z.> $ q q $ > z.d.a.p.w 0 w.w.w.w.y.w.w.",
"t.w.w.w.e.w.e.q 7 &.&.s.c.T s s s s T c.s.&.&.6 q e.w.e.w.w.w.t.",
"r.w.w.e.w.w.u.q 7 *.*.i.^.I.H.D.D.H.I.^.i.*.*.7 q u.w.w.e.w.w.r.",
"w.u.w.w.w.r.w.2 g x.x.N.^.U.D.D.F.D.U.^.N.M.x.g q w.r.w.w.w.u.w.",
"w.w.u.w.w.w.w.q V ].].{.^.L.D.D.F.D.L.^.{.].].V q w.w.w.w.u.w.y.",
"w.u.w.w.w.9.;.5 V [.].]._.P.K.J.J.K.P._.].].[.V 5 ;.9.w.w.w.u.w.",
"w.w.w.r.r.| ; O V [.].Z.`.E.R.R.R.R.E.`.Z.].[.V O ; | r.r.w.w.w.",
"e.w.w.w.w.#.z $ V V./ >.].].].].].].].].>./ V.V % z #.w.w.w.w.w.",
"w.w.w.w.r.6.+.4 V n.S Y (.].].].].].).(.Y S n.V 4 +.6.r.w.w.w.w.",
"w.w.w.r.w.] & o V C.k.z.].].].[.].].[.].l.k.(.C o & ] w.r.w.w.w.",
"w.y.w.w.r.@.v & B Q.Q.~.].[.'.].].].].].!.Q.Q.B * v @.r.w.w.y.w.",
"u.r.w.w.w.w.y.x A %.$.1.4.4.4.4.4.4.4.4.2.%.$.A x y.w.w.w.w.r.u.",
"w.w.w.w.w.w.w.:.R + # = i u i i i i p i - # # E :.w.w.w.w.w.w.w.",
"w.y.y.w.0.w.e.n G ( ) K , , l m o.P , , K ) ( F n e.y.0.w.y.y.w.",
"w.e.w.w.w.w.w.3 y G.T.<.P P _ =.g.O.P L ,.T.G.s 3 w.w.w.w.w.e.y.",
"w.w.w.w.r.w.w.3 s G.T./.n.B.-.  . -.v.n./.T.G.d 3 w.w.r.w.w.w.w.",
"w.w.w.w.0.w.w.[ U a N ~ ].[.m.h.j.m.].].^ M a U X.w.w.0.w.w.w.w.",
"w.w.w.w.w.w.w.w.{ 9 @ J Y.W.3./ / 3.W.Y.J @ 9 { w.w.w.w.w.w.w.w.",
"w.w.w.w.w.w.w.w.u.7.1 H S.A.W X X W A.A.H 1 7.u.w.w.w.w.w.w.w.w.",
"w.w.w.w.w.w.w.w.t.8. .I < r D ` ` D r < I  .8.t.w.w.w.w.w.w.w.w.",
"w.w.w.w.w.w.w.w.w.w.r.' j j ! r.r.! j h ' r.w.w.w.w.w.w.w.w.w.w.",
"w.w.w.w.w.w.w.w.w.0.y.w.w.w.w.w.w.w.w.w.w.y.0.w.w.w.w.w.w.w.w.w.",
"w.w.w.w.w.w.w.w.w.w.w.w.w.w.w.r.r.w.w.w.w.w.w.w.w.w.w.w.w.w.w.w.",
"w.w.w.w.w.w.w.w.w.w.w.e.y.w.y.w.w.y.w.y.e.w.w.w.w.w.w.w.w.w.w.w.",
"w.w.w.w.w.w.w.w.w.w.w.w.y.r.w.w.w.w.r.y.w.w.w.w.w.w.w.w.w.w.w.w."
};
