/* XPM */
static char *down4_resized[] = {
/* columns rows colors chars-per-pixel */
"32 32 206 2 ",
"   c #EAE178",
".  c #EAE17A",
"X  c #5B4E93",
"o  c #615293",
"O  c #635593",
"+  c #675795",
"@  c #645596",
"#  c #665893",
"$  c #6A5B96",
"%  c #675B9B",
"&  c #736394",
"*  c #736296",
"=  c #756594",
"-  c #746795",
";  c #776796",
":  c #766697",
">  c #72679F",
",  c #74679F",
"<  c #7E6D99",
"1  c #7E739B",
"2  c #7D729C",
"3  c #776AA0",
"4  c #7A6BA2",
"5  c #776DAA",
"6  c #827297",
"7  c #867597",
"8  c #8B7B96",
"9  c #857498",
"0  c #877698",
"q  c #8B729A",
"w  c #8C719A",
"e  c #867C9F",
"r  c #8A7B98",
"t  c #8B7B98",
"y  c #8D799E",
"u  c #907D99",
"i  c #907D9B",
"p  c #8473A0",
"a  c #8173A6",
"s  c #8074A6",
"d  c #837BA2",
"f  c #867CA1",
"g  c #817BAB",
"h  c #877BA9",
"j  c #827AAD",
"k  c #8279AE",
"l  c #887CAC",
"z  c #8A7EAC",
"x  c #8A819C",
"c  c #8F809F",
"v  c #95819A",
"b  c #97809A",
"n  c #958D9C",
"m  c #9F8D9B",
"M  c #9D8A9D",
"N  c #A5919C",
"B  c #A8949D",
"V  c #AE9B9F",
"C  c #B6A19E",
"Z  c #B7A29F",
"A  c #B8A39E",
"S  c #BDB292",
"D  c #8E84A6",
"F  c #9082A3",
"G  c #9182A3",
"H  c #9086A1",
"J  c #9187A2",
"K  c #9986A2",
"L  c #978EA1",
"P  c #978EA3",
"I  c #9B8EA0",
"U  c #9D8EA3",
"Y  c #9687A8",
"T  c #9184AF",
"R  c #968DA8",
"E  c #9990A5",
"W  c #9C94AC",
"Q  c #9992B1",
"!  c #9893B1",
"~  c #A796A0",
"^  c #A694A2",
"/  c #A69FA7",
"(  c #AC98A3",
")  c #A096AF",
"_  c #B39FA0",
"`  c #A094B8",
"'  c #A89FBE",
"]  c #A9A2AA",
"[  c #B5A1A0",
"{  c #BBA7A0",
"}  c #B6B1AD",
"|  c #BEBAAF",
" . c #B1AAB2",
".. c #BAB4B6",
"X. c #C1AB9E",
"o. c #C0B796",
"O. c #C1ABA0",
"+. c #C2AAA0",
"@. c #C6B0A2",
"#. c #C7B0A2",
"$. c #CBB5A0",
"%. c #C9B4A3",
"&. c #CDB7A2",
"*. c #CFB6A2",
"=. c #CDB6A4",
"-. c #C3BDAF",
";. c #D3BBA3",
":. c #D6BFA0",
">. c #D7BDA2",
",. c #D6BEA2",
"<. c #D4BCA4",
"1. c #D2BAB8",
"2. c #D2BABA",
"3. c #E7B5AC",
"4. c #E8B8AE",
"5. c #EBE380",
"6. c #ECE89F",
"7. c #EEE89E",
"8. c #D9C1A5",
"9. c #DCC3A4",
"0. c #DFC7A5",
"q. c #CBC6B3",
"w. c #CAC4B4",
"e. c #CCC6B6",
"r. c #CECBBA",
"t. c #D3C5BA",
"y. c #D9D5BA",
"u. c #DAD6BB",
"i. c #DDDABB",
"p. c #E7CFA3",
"a. c #E1C9A5",
"s. c #E4CAA5",
"d. c #E5CCA4",
"f. c #E5CEA5",
"g. c #E7CEA5",
"h. c #E6CFA5",
"j. c #E7CEA6",
"k. c #EACFA4",
"l. c #E8CFA6",
"z. c #E8CFA7",
"x. c #EACEA6",
"c. c #E7D0A6",
"v. c #E7D0A7",
"b. c #E8D0A4",
"n. c #E9D0A7",
"m. c #E9D0A8",
"M. c #EDCFB3",
"N. c #EDCAB4",
"B. c #EDCAB6",
"V. c #ECCEB4",
"C. c #EEDAB7",
"Z. c #E1DFB9",
"A. c #EFEBA4",
"S. c #F0EBA7",
"D. c #E2E0BA",
"F. c #E5E3BC",
"G. c #EFE1BA",
"H. c #E8E6BD",
"J. c #EEEDBD",
"K. c #EDEFBD",
"L. c #EEEDBF",
"P. c #EFEEBE",
"I. c #F1EFB4",
"U. c #F0E1BA",
"Y. c #F1E8BD",
"T. c #F1F1BF",
"R. c #F4F2BF",
"E. c #F5F2BF",
"W. c #B1A7C2",
"Q. c #BBB1C9",
"!. c #D6D3C0",
"~. c #D9D2DA",
"^. c #D9D1DC",
"/. c #DCD5DD",
"(. c #DED4DD",
"). c #DCD4DF",
"_. c #DDD6DE",
"`. c #DDD9DA",
"'. c #DED8DA",
"]. c #E3DFC2",
"[. c #E2DAD7",
"{. c #E4DDD5",
"}. c #E3DBD8",
"|. c #E1DCD8",
" X c #E9E4C4",
".X c #EEEAC7",
"XX c #EEECC5",
"oX c #EFEDC6",
"OX c #EBE7CA",
"+X c #EBE8C9",
"@X c #F2E3C2",
"#X c #F3E4C3",
"$X c #F3EAC1",
"%X c #F0EDC0",
"&X c #F2EFC4",
"*X c #F1F0C0",
"=X c #F3F1C0",
"-X c #F2F2C0",
";X c #F3F3C1",
":X c #F1F0C2",
">X c #F4F0C1",
",X c #F5F1C1",
"<X c #F4F2C1",
"1X c #F4F2C2",
"2X c #F5F3C2",
"3X c #F6F2C2",
/* pixels */
"h.l.l.l.l.l.l.c.l.x.n.l.l.l.n.l.l.n.l.l.l.n.x.l.c.l.l.l.l.l.l.h.",
"l.b.l.l.l.l.l.x.l.l.l.l.n.l.l.l.l.l.l.n.l.l.l.l.x.l.l.l.l.l.b.l.",
"b.l.l.b.l.l.l.c.l.x.l.l.l.l.l.l.l.l.l.l.l.l.x.l.c.l.l.l.b.l.l.b.",
"l.l.l.n.b.l.l.c.l.x.l.l.l.l.l.l.l.l.l.l.l.l.x.l.c.l.l.b.n.l.l.l.",
"n.l.l.n.l.l.l.n.$.v v b M ,.l.l.l.l.,.M b v v $.n.l.l.l.n.l.l.n.",
"l.b.l.p.l.l.l.&.V e e f x [ <.l.l.<.[ x f e e V &.l.l.l.p.l.b.l.",
"l.l.l.l.l.g.l.i J L.L.L.Z.1 m l.l.m 1 Z.L.L.L.J i l.g.l.l.l.l.l.",
"l.l.b.l.l.l.l.r y N.B.C.F.2 & t t & 2 F.C.B.N.y r l.l.l.l.b.l.l.",
"c.l.l.l.z.l.z.t w 3.3.V.H.) l l l l ) H.V.3.3.q t z.l.z.l.l.l.c.",
"x.l.l.z.l.l.n.t w 4.4.M.&X}.)././.).}.&XM.4.4.w t n.l.l.z.l.l.x.",
"l.n.l.l.l.x.l.8 c G.G.Y.&X|././.(./.|.&XY.U.G.c t l.x.l.l.l.n.l.",
"l.l.n.l.l.l.l.t H <X<X3X&X[././.(./.[.&X3X<X<XH t l.l.l.l.n.l.b.",
"l.n.l.l.l.f.9.0 H 2X<X<X:X{.'.`.`.'.{.:X<X<X2XH 0 9.f.l.l.l.n.l.",
"l.l.l.x.x.%.< # H 2X<XR.>XoXXXXXXXXXoX>XR.<X2XH # < %.x.x.l.l.l.",
"z.l.l.l.l.<.m & H T.| w.<X<X<X<X<X<X<X<Xw.| T.H * m <.l.l.l.l.l.",
"l.l.l.l.x.a.;.9 H P.L / =X<X<X<X<X<X;X=X/ L P.H 9 ;.a.x.l.l.l.l.",
"l.l.l.g.l.#.; O H T.D.F.<X1X;X<X<X,X<X<XF.D.-XH O = #.n.l.l.l.z.",
"l.z.l.l.l.:.B - F #X@X$X<X<XE.=X<X<X<X,X$X#X#XG : ~ >.l.l.l.l.l.",
"z.z.l.l.l.g.x.m K 2.2.t.y.y.y.u.y.y.y.y.t.1.2.p t l.l.z.b.v.l.l.",
"n.l.l.l.l.l.l.0._ $ $ > k j j j g j k j , $ $ o t g.b.b.l.n.l.l.",
"l.l.l.g.n.l.x.l.A X X % 5 5 n S | ! 5 5 W  .' 3 t l.l.l.b.g.l.l.",
"l.l.x.l.l.l.l.*.( s d D Q Q o.5.A.-.Q Q r.].Q.Y N l.l.l.l.g.l.l.",
"l.l.b.l.b.l.k.u z ~. X%XK.P.7.  . 6.P.J.*Xe.@ C d.l.z.l.l.l.l.l.",
"l.l.c.l.l.l.l.t h _..Xq.E i.I.S.S.I.<X<X} I Z 8.g.l.l.l.l.c.l.l.",
"l.l.b.l.l.l.l.r 4 W...P + ] | | | !.OX+XR 6 s.l.l.l.l.l.l.l.l.l.",
"l.l.l.l.l.g.l.i o o o o o o o o o ` ^.^.T 7 s.l.l.l.l.l.l.l.l.l.",
"l.b.l.p.l.l.l.&.O.O.O.O.O.O.O.X.+.U s a ^ =.j.l.l.l.l.l.l.l.l.l.",
"n.l.l.n.l.l.l.n.l.l.l.l.b.l.l.g.l.{ v v @.l.l.l.l.l.l.l.l.l.l.l.",
"l.l.l.n.b.l.l.c.l.m.l.l.l.l.l.l.l.x.x.l.l.n.l.l.l.l.l.l.l.l.l.l.",
"b.l.l.b.l.l.l.c.l.l.l.l.l.l.n.l.l.l.l.n.l.x.l.l.l.l.l.l.l.l.l.l.",
"l.b.l.l.l.l.l.x.l.l.n.l.l.l.l.l.l.l.l.l.l.l.l.b.l.l.l.l.l.l.l.l.",
"h.l.l.l.l.l.l.c.p.l.l.g.l.n.l.l.n.l.l.l.l.l.l.x.l.l.l.l.l.l.l.l."
};
