/* XPM */
static char *down2_resized[] = {
/* columns rows colors chars-per-pixel */
"32 32 195 2 ",
"   c #EBE27D",
".  c #5A4D93",
"X  c #5F5393",
"o  c #5E5294",
"O  c #5F5395",
"+  c #605192",
"@  c #615293",
"#  c #625293",
"$  c #635593",
"%  c #655593",
"&  c #605194",
"*  c #615295",
"=  c #655594",
"-  c #635894",
";  c #6D5F94",
":  c #665A9A",
">  c #675B9B",
",  c #766695",
"<  c #796895",
"1  c #7A6995",
"2  c #7A6996",
"3  c #756999",
"4  c #766CA9",
"5  c #776DAA",
"6  c #766EAA",
"7  c #786CAA",
"8  c #816F97",
"9  c #817196",
"0  c #807097",
"q  c #827297",
"w  c #867597",
"e  c #857399",
"r  c #857498",
"t  c #867C9F",
"y  c #8173A6",
"u  c #8074A6",
"i  c #8279A4",
"p  c #837BAA",
"a  c #907FA3",
"s  c #958298",
"d  c #95819A",
"f  c #97809A",
"g  c #95839B",
"h  c #98819D",
"j  c #9D8B9B",
"k  c #998C9E",
"l  c #9D8F9E",
"z  c #A79E95",
"x  c #A8949D",
"c  c #AB969D",
"v  c #B09C9D",
"b  c #B19D9E",
"n  c #B6A19C",
"m  c #B6A19E",
"M  c #B7A29F",
"N  c #B8A39E",
"B  c #BAA29E",
"V  c #8E89A0",
"C  c #9086A1",
"Z  c #9085A3",
"A  c #9285A3",
"S  c #9D8EA3",
"D  c #9187AA",
"F  c #9687A8",
"G  c #9184AF",
"H  c #9788A9",
"J  c #968DA8",
"K  c #9E95A6",
"L  c #A38FAA",
"P  c #A38FAB",
"I  c #A691A2",
"U  c #A694A2",
"Y  c #AB92A7",
"T  c #A79AAE",
"R  c #B691A3",
"E  c #BB92A4",
"W  c #BA9EAA",
"Q  c #A196B4",
"!  c #A396B4",
"~  c #A094B8",
"^  c #ACA7AB",
"/  c #BBA7A0",
"(  c #BDA5A1",
")  c #B2ACAC",
"_  c #B6AEAC",
"`  c #B8B3AD",
"'  c #BFB8AE",
"]  c #BEBAAF",
"[  c #ABA5B3",
"{  c #B1ACB3",
"}  c #B3ACB4",
"|  c #B2ADB4",
" . c #B2A9BC",
".. c #B4ABBE",
"X. c #B5ACBF",
"o. c #BDB8B2",
"O. c #C1AB9E",
"+. c #C1ABA0",
"@. c #C2AAA0",
"#. c #C1AAA2",
"$. c #C2ACA1",
"%. c #C4AEA1",
"&. c #C6B0A2",
"*. c #C7B0A2",
"=. c #CBB4A2",
"-. c #CAB5A2",
";. c #CDB6A4",
":. c #D3BBA3",
">. c #D4BFA2",
",. c #D6BEA2",
"<. c #D7BFA3",
"1. c #C4BEB2",
"2. c #C0BDB8",
"3. c #E5B4AD",
"4. c #E7B5AC",
"5. c #E8B8AC",
"6. c #E9B9AD",
"7. c #DFD888",
"8. c #D4CD99",
"9. c #ECE78C",
"0. c #EDE88D",
"q. c #EDE791",
"w. c #DDC5A3",
"e. c #DEC4A3",
"r. c #D8C0A4",
"t. c #DFC7A5",
"y. c #D3D2A6",
"u. c #DEDBB8",
"i. c #DEDBBA",
"p. c #E7CFA3",
"a. c #E1C9A5",
"s. c #E1C9A7",
"d. c #E4CAA5",
"f. c #E7CEA5",
"g. c #E7CEA6",
"h. c #E9CDA6",
"j. c #E8CFA6",
"k. c #E8CFA7",
"l. c #EACEA6",
"z. c #E7D0A4",
"x. c #E7D0A6",
"c. c #E8D0A4",
"v. c #E9D0A7",
"b. c #E9D0A8",
"n. c #EBCBB2",
"m. c #EBCBB4",
"M. c #EDCAB4",
"N. c #F0EBA7",
"B. c #E6E3B6",
"V. c #E9E7BE",
"C. c #EDEABF",
"Z. c #EEEDBD",
"A. c #EEEDBF",
"S. c #ECEEBF",
"D. c #EFEEBE",
"F. c #F0E1BA",
"G. c #F0E7BC",
"H. c #F1E8BD",
"J. c #F1EDBE",
"K. c #F0EFBF",
"L. c #F2F0BD",
"P. c #F3F1BE",
"I. c #F4F2BF",
"U. c #B1A6C4",
"Y. c #B1A6C6",
"T. c #B9AFC8",
"R. c #BAB0C9",
"E. c #D6D3C0",
"W. c #D9D1DC",
"Q. c #DCD5DD",
"!. c #DED4DD",
"~. c #DDD6DE",
"^. c #F2DCC4",
"/. c #F3DDC5",
"(. c #E3DBD8",
"). c #E3DBD9",
"_. c #E4DAD9",
"`. c #EBE7CA",
"'. c #E9E4CE",
"]. c #EBE8C9",
"[. c #F3E5C2",
"{. c #F4E4C2",
"}. c #F2EEC1",
"|. c #F2EFC2",
" X c #F3EFC2",
".X c #F2EFC4",
"XX c #F3F1C0",
"oX c #F3F3C1",
"OX c #F5F1C1",
"+X c #F4F2C1",
"@X c #F5F3C2",
"#X c #F3F0C5",
"$X c #E7E1D3",
"%X c #E8E0D3",
"&X c #E8E2D4",
/* pixels */
"j.v.j.j.j.j.j.f.j.j.z.j.j.j.j.j.j.j.b.j.j.l.j.j.f.j.j.j.j.j.v.j.",
"j.v.k.j.j.l.l.j.j.j.b.j.j.j.j.j.k.c.j.f.j.v.j.l.j.l.l.j.j.k.v.j.",
"j.j.j.j.k.j.j.j.v.j.j.j.j.l.j.l.j.j.v.j.j.j.j.j.j.j.j.k.j.j.j.j.",
"j.j.j.j.c.v.j.j.l.j.v.j.j.j.j.j.j.j.j.j.j.j.j.j.j.j.v.c.j.j.j.j.",
"j.f.j.j.j.l.j.v d s d d j ,.j.j.c.l.j.j.M d f s v j.l.j.j.j.f.j.",
"j.j.j.j.j.e.$.k t t t 3 - c +.+.+.+.+.+.l t t t k $.e.j.j.j.j.j.",
"j.j.j.l.j.#.= ' Z.A.Z.) . + @ + # @ @ & _ A.S.A.' = #.j.l.j.j.j.",
"j.j.l.j.j.O.X W M.n.H.u.o...U.Y.U.U.X.o.i.G.m.M.W X O.j.j.l.j.j.",
"j.j.x.j.j.+.* E 4.5.F.+X.X(.Q.Q.Q.Q.(..X+XF.5.4.E * +.j.j.x.j.j.",
"j.j.j.j.j.$.% R 3.6.F.+X.X(.!.~.~.!.(..X+XF.6.3.R % $.j.j.j.j.j.",
"j.j.j.j.j.w.$.h Y F.J.@X#X_.Q.Q.Q.Q.).#X@XJ.F.Y h $.w.j.j.j.j.j.",
"j.j.j.j.f.r.b < C +X+X@X|.'.%X$X$X%X'.|.@X+XoXC < b r.f.j.j.j.j.",
"j.j.j.j.j.%.; @ C XXV.C.XX+XI.+X+XI.+XXXC.V.XXC @ ; %.j.j.j.j.j.",
"c.j.j.j.h.t.-.9 C D.K ^ +XOX+X+X+X+X+X+X^ K D.C 9 -.t.h.j.j.j.c.",
"x.l.j.j.j.>.x , C K.` 1.+X+X+X+X+X+X+X+X1.` K.C , x >.j.j.j.l.x.",
"j.j.x.j.l.*., $ A }. XL.+X+X+X+X+X+X+X+XL. X}.Z $ , *.l.j.x.j.j.",
"k.j.j.v.j.a.:.r a /.^.[.+X+X+XXX+X+X+X+X{.^.^.a e :.s.j.v.j.c.j.",
"j.j.j.j.j.j.j.( I L L T { { { { { | { { T P L I ( j.j.j.j.j.j.j.",
"j.j.p.j.j.j.k.k.$.1 % : 5 4 i V D p 5 5 > % 2 $.j.k.j.j.j.f.j.j.",
"l.j.v.j.j.j.z.j.d.<.8 > 5 6 z 7.B.[ 7 5 > 0 <.d.j.j.j.j.x.v.j.j.",
"j.j.j.j.j.j.j.j.=.g !  .2.2.8.  q.y.2.2. .Q g =.j.j.j.j.j.j.j.j.",
"j.v.j.k.j.j.j.j.N & R.$X+XXXN.0.9.N.+X@X&XT.* N j.j.j.j.k.j.v.j.",
"j.j.j.k.c.j.j.j.B O T.$X+X+XP.P.P.P.+X+X$XT.o N j.j.j.c.k.j.j.j.",
"l.j.j.l.j.l.j.j.r.m F } +X+XXX+X+X+X+X+X} H n r.j.j.l.j.l.x.j.j.",
"j.j.j.j.j.j.j.j.j.d.q J ].`.E.] ] E.`.].J q d.j.j.j.j.j.j.j.j.j.",
"j.j.j.j.j.j.j.j.j.d.w G W.W.~ @ @ ~ W.W.G w d.j.j.j.j.j.j.j.j.j.",
"j.j.j.j.j.j.j.j.j.g.;.U y u S @.@.S u y U ;.g.j.j.j.j.j.j.j.j.j.",
"j.j.j.j.j.j.j.j.j.j.j.&.d d / j.j./ d d &.j.j.j.j.j.j.j.j.j.j.j.",
"j.j.j.j.j.j.j.j.j.j.v.j.j.l.l.j.j.l.l.j.j.v.j.j.j.j.j.j.j.j.j.j.",
"j.j.j.j.j.j.j.j.j.j.l.j.v.j.j.j.j.j.j.v.j.l.j.j.j.j.j.j.j.j.j.j.",
"j.j.j.j.j.j.j.j.c.j.j.j.j.j.j.j.j.j.j.j.j.j.j.c.j.j.j.j.j.j.j.j.",
"j.j.j.j.j.j.j.j.l.j.j.j.j.j.j.v.v.j.j.j.j.j.j.l.j.j.j.j.j.j.j.j."
};
