/* XPM */
static char *down3_resized[] = {
/* columns rows colors chars-per-pixel */
"32 32 206 2 ",
"   c #EAE178",
".  c #EAE17A",
"X  c #5B4E93",
"o  c #615293",
"O  c #635593",
"+  c #655795",
"@  c #675795",
"#  c #665893",
"$  c #6A5B96",
"%  c #675B9B",
"&  c #736394",
"*  c #736296",
"=  c #756594",
"-  c #746795",
";  c #766697",
":  c #756896",
">  c #75669F",
",  c #74679F",
"<  c #7E6D99",
"1  c #7E739B",
"2  c #7D729C",
"3  c #776AA0",
"4  c #7A6BA2",
"5  c #766CA9",
"6  c #776DAA",
"7  c #766EAA",
"8  c #7F73A5",
"9  c #827297",
"0  c #867597",
"q  c #8B7B96",
"w  c #857498",
"e  c #877698",
"r  c #8B729A",
"t  c #8C719A",
"y  c #867C9F",
"u  c #8A7B98",
"i  c #8B7B98",
"p  c #8D799E",
"a  c #907D99",
"s  c #907D9B",
"d  c #8373A0",
"f  c #8173A6",
"g  c #8074A6",
"h  c #857AA2",
"j  c #867CA1",
"k  c #8179AC",
"l  c #827AAD",
"z  c #887CAC",
"x  c #8A7EAC",
"c  c #8A819C",
"v  c #8F809F",
"b  c #95819A",
"n  c #97809A",
"m  c #958D9C",
"M  c #9F8D9B",
"N  c #9D8A9D",
"B  c #A5919C",
"V  c #A8949D",
"C  c #AE9B9F",
"Z  c #B6A19E",
"A  c #B7A29F",
"S  c #B8A39E",
"D  c #BCB392",
"F  c #8E84A6",
"G  c #9082A3",
"H  c #9086A1",
"J  c #9187A2",
"K  c #9986A2",
"L  c #978EA1",
"P  c #978EA3",
"I  c #9B8EA0",
"U  c #9D8EA3",
"Y  c #9686AA",
"T  c #9184AF",
"R  c #968DA8",
"E  c #9990A5",
"W  c #9C94AC",
"Q  c #9992B1",
"!  c #9893B1",
"~  c #A796A0",
"^  c #A694A2",
"/  c #A69FA7",
"(  c #AC98A3",
")  c #A096AF",
"_  c #B39FA0",
"`  c #A094B8",
"'  c #A9A2AA",
"]  c #B5A1A0",
"[  c #BBA7A0",
"{  c #B7B4AF",
"}  c #BEBAAF",
"|  c #B1AAB2",
" . c #BAB4B6",
".. c #C1AB9E",
"X. c #C0B796",
"o. c #C1ABA0",
"O. c #C2AAA0",
"+. c #C6B0A2",
"@. c #C7B0A2",
"#. c #CBB5A0",
"$. c #C9B4A3",
"%. c #CDB7A2",
"&. c #CFB6A2",
"*. c #CDB6A4",
"=. c #C3BDAF",
"-. c #D3BBA3",
";. c #D6BFA0",
":. c #D7BDA2",
">. c #D6BEA2",
",. c #D4BCA4",
"<. c #D2BAB8",
"1. c #D3B9BA",
"2. c #D2BABA",
"3. c #D3BBBB",
"4. c #E7B5AC",
"5. c #E8B8AE",
"6. c #EBE380",
"7. c #ECE89F",
"8. c #EEE89E",
"9. c #D8C0A4",
"0. c #DCC3A4",
"q. c #DFC7A5",
"w. c #CBC6B3",
"e. c #CAC4B4",
"r. c #CBC5B5",
"t. c #CECBBA",
"y. c #D3C5BA",
"u. c #D9D5BA",
"i. c #D9D5BC",
"p. c #DDDAB9",
"a. c #E7CFA3",
"s. c #E1C9A5",
"d. c #E4CAA5",
"f. c #E5CCA4",
"g. c #E5CEA5",
"h. c #E7CEA5",
"j. c #E6CFA5",
"k. c #E7CEA6",
"l. c #EACFA4",
"z. c #E8CFA6",
"x. c #E8CFA7",
"c. c #EACEA6",
"v. c #E7D0A6",
"b. c #E7D0A7",
"n. c #E8D0A4",
"m. c #E9D0A7",
"M. c #E9D0A8",
"N. c #EDCFB3",
"B. c #EDCAB4",
"V. c #EDCAB6",
"C. c #ECCEB4",
"Z. c #EEDAB7",
"A. c #E1DFB9",
"S. c #F1EAA4",
"D. c #F0EBA7",
"F. c #F0ECA5",
"G. c #E2E0BA",
"H. c #E5E3BC",
"J. c #EFE1BA",
"K. c #E8E6BD",
"L. c #EEEDBF",
"P. c #EFEEBE",
"I. c #F1EFB4",
"U. c #F0E1BA",
"Y. c #F1E8BD",
"T. c #F0EEBE",
"R. c #F1F1BF",
"E. c #F4F2BF",
"W. c #A99FC1",
"Q. c #B1A7C2",
"!. c #BBB1C9",
"~. c #D6D3C0",
"^. c #D9D2DA",
"/. c #D9D1DC",
"(. c #DCD5DD",
"). c #DED4DD",
"_. c #DFD5DD",
"`. c #DCD4DF",
"'. c #DDD9DA",
"]. c #DED8DA",
"[. c #E3DFC2",
"{. c #E2DAD7",
"}. c #E4DDD5",
"|. c #E3DBD8",
" X c #E1DCD8",
".X c #E8E5C6",
"XX c #EEECC5",
"oX c #EFEDC6",
"OX c #EBE7CA",
"+X c #EBE8C9",
"@X c #EEEBC8",
"#X c #F3E4C3",
"$X c #F4E5C4",
"%X c #F3EAC1",
"&X c #F0EDC0",
"*X c #F2EFC4",
"=X c #F1F0C0",
"-X c #F3F1C0",
";X c #F2F2C0",
":X c #F3F3C1",
">X c #F1F0C2",
",X c #F4F0C1",
"<X c #F4F2C1",
"1X c #F4F2C2",
"2X c #F5F3C2",
"3X c #F6F2C2",
/* pixels */
"j.z.z.z.z.z.z.v.z.c.m.z.z.z.m.z.z.m.z.z.z.m.c.z.v.z.z.z.z.z.z.j.",
"z.n.z.z.z.z.z.c.z.z.z.z.m.z.z.z.z.z.z.m.z.z.z.z.c.z.z.z.z.z.n.z.",
"n.z.z.n.z.z.z.v.z.c.z.z.z.z.z.z.z.z.z.z.z.z.c.z.v.z.z.z.n.z.z.n.",
"z.z.z.m.n.z.z.v.z.c.z.z.z.z.z.z.z.z.z.z.z.z.c.z.v.z.z.n.m.z.z.z.",
"m.z.z.m.z.z.z.m.#.b b n N >.z.z.z.z.>.N n b b #.m.z.z.z.m.z.z.m.",
"z.n.z.a.z.z.z.%.C y y j c ] ,.z.z.,.] c j y y C %.z.z.z.a.z.n.z.",
"z.z.z.z.z.h.z.s J L.L.L.A.1 M z.z.M 1 A.L.L.L.J s z.h.z.z.z.z.z.",
"z.z.n.z.z.z.z.u p B.V.Z.H.2 & i i & 2 H.Z.V.B.p u z.z.z.z.n.z.z.",
"v.z.z.z.x.z.x.i t 4.4.C.K.) z z z z ) K.C.4.4.r i x.z.x.z.z.z.v.",
"c.z.z.x.z.z.m.i t 5.5.N.*X|.`.(.(.`.|.*XN.5.5.t i m.z.z.x.z.z.c.",
"z.m.z.z.z.c.z.q v J.J.Y.*X X(.(.).(. X*XY.U.J.v i z.c.z.z.z.m.z.",
"z.z.m.z.z.z.z.i H <X<X3X*X{.(.(.).(.{.*X3X<X<XH i z.z.z.z.m.z.n.",
"z.m.z.z.z.g.0.e H 2X<X<X>X}.].'.'.].}.>X<X<X2XH e 0.g.z.z.z.m.z.",
"z.z.z.c.c.$.< # H 2X<XE.,XoXXXXXXXXXoX,XE.<X2XH # < $.c.c.z.z.z.",
"x.z.z.z.z.,.M & H R.} e.<X<X<X<X<X<X<X<Xe.} R.H * M ,.z.z.z.z.z.",
"z.z.z.z.c.s.-.w H P.L / -X<X<X<X<X<X:X-X/ L P.H w -.s.c.z.z.z.z.",
"x.z.z.z.m.@.= O H R.G.H.1X<X<X<X<X<X<X<XH.G.;XH O : @.z.z.z.z.z.",
"z.z.z.z.z.:.~ ; G #X#X%X1X<X<X<X-X<X<X<X%X$X#XG - V ;.z.z.h.x.z.",
"z.z.b.n.x.z.z.i d 1.<.y.u.u.u.i.u.u.u.u.y.2.3.K M z.z.z.z.z.x.x.",
"z.z.m.z.n.n.h.i o $ $ , k l l l l l l l > $ $ _ q.z.z.z.z.z.z.z.",
"z.z.h.n.z.z.z.i 3 W.| W 7 6 m D } Q 6 5 % X X S z.c.z.z.z.z.z.z.",
"z.z.h.z.z.z.z.B Y !.[.t.Q Q X.6.S.=.Q ! F h 8 ( &.z.z.z.z.c.z.z.",
"z.z.z.z.z.x.z.f.Z + r.=XP.P.8.  . 7.T.P.&X.X^.x a l.z.n.m.n.m.z.",
"z.z.v.z.z.z.z.h.9.A I { <X<XI.D.F.I.p.E w.@X_.z i z.z.h.z.j.z.z.",
"z.z.z.z.z.z.z.z.z.d.9 R +XOX~.} } } ' @ P  .Q.4 u z.z.z.z.n.z.z.",
"z.z.z.z.z.z.z.z.z.d.0 T /./.` o o o o o o o o o s z.h.z.z.z.z.z.",
"z.z.z.z.z.z.z.z.z.k.*.^ f g U O...o.o.o.o.o.o.o.%.z.z.z.a.z.n.z.",
"z.z.z.z.z.z.z.z.z.z.z.+.b b [ z.h.z.z.n.z.z.z.z.m.z.z.z.m.z.z.m.",
"z.z.z.z.z.z.z.z.z.z.m.z.z.c.c.z.z.z.z.z.z.z.M.z.v.z.z.n.m.z.z.z.",
"z.z.z.z.z.z.z.z.z.z.c.z.m.z.z.z.z.m.z.z.z.z.z.z.v.z.z.z.n.z.z.n.",
"z.z.z.z.z.z.z.z.n.z.z.z.z.z.z.z.z.z.z.z.z.m.z.z.c.z.z.z.z.z.n.z.",
"z.z.z.z.z.z.z.z.c.z.z.z.z.z.z.m.z.z.m.z.h.z.z.a.v.z.z.z.z.z.z.j."
};
