/* XPM */
static char *left3_resized[] = {
/* columns rows colors chars-per-pixel */
"32 32 205 2 ",
"   c #5A4D92",
".  c #5B4E93",
"X  c #5E4F92",
"o  c #5F5093",
"O  c #605192",
"+  c #615293",
"@  c #625492",
"#  c #655593",
"$  c #675593",
"%  c #615295",
"&  c #665893",
"*  c #6D5C93",
"=  c #6B5E96",
"-  c #6E6095",
";  c #6D6096",
":  c #6B6098",
">  c #726195",
",  c #706295",
"<  c #736296",
"1  c #7E6E95",
"2  c #7E6D97",
"3  c #7D6E97",
"4  c #73699E",
"5  c #7A6898",
"6  c #7369A5",
"7  c #776DAA",
"8  c #766EAA",
"9  c #786EAB",
"0  c #7D73A7",
"q  c #817196",
"w  c #807097",
"e  c #827297",
"r  c #867597",
"t  c #877698",
"y  c #867C9F",
"u  c #897A99",
"i  c #8074A6",
"p  c #8175A7",
"a  c #857BA0",
"s  c #867CA1",
"d  c #8177AB",
"f  c #8177AC",
"g  c #8278AC",
"h  c #827AAD",
"j  c #897DAB",
"k  c #988D95",
"l  c #948099",
"z  c #958298",
"x  c #95819A",
"c  c #96829B",
"v  c #93879F",
"b  c #99889B",
"n  c #9C899C",
"m  c #A48D9D",
"M  c #A89790",
"N  c #A5919D",
"B  c #A6929D",
"V  c #A7939E",
"C  c #A7939F",
"Z  c #A19899",
"A  c #AD989D",
"S  c #AF9B9D",
"D  c #AD9A9E",
"F  c #B19D9E",
"G  c #B0A683",
"H  c #B8AE8A",
"J  c #B8A39E",
"K  c #BAA29E",
"L  c #BEAA9F",
"P  c #8A81A0",
"I  c #8F86A1",
"U  c #8E85A4",
"Y  c #9285A1",
"T  c #9086A1",
"R  c #9085A3",
"E  c #968EA6",
"W  c #9D8EA3",
"Q  c #9184AF",
"!  c #9088AD",
"~  c #9E8EA9",
"^  c #9890A5",
"/  c #9992A4",
"(  c #9991A6",
")  c #9A91A6",
"_  c #9E93A4",
"`  c #9991A8",
"'  c #9085B0",
"]  c #9992B1",
"[  c #9D97B1",
"{  c #A593A3",
"}  c #A094A2",
"|  c #A595A0",
" . c #A796A0",
".. c #A694A2",
"X. c #A39BA8",
"o. c #A094B8",
"O. c #AEA8AA",
"+. c #BBA7A0",
"@. c #BAB3AB",
"#. c #BDB6AE",
"$. c #BEBAAF",
"%. c #ADA0BC",
"&. c #BDB9B0",
"*. c #BBB5B9",
"=. c #C0B18A",
"-. c #C1ABA0",
";. c #C2ABA3",
":. c #C3ADA0",
">. c #C2ACA1",
",. c #C5AFA1",
"<. c #C6B0A2",
"1. c #C9B4A3",
"2. c #CCB5A3",
"3. c #CDB7A2",
"4. c #D0BAA3",
"5. c #D7BFA3",
"6. c #D8BEA3",
"7. c #C3BBB0",
"8. c #C4BEB2",
"9. c #C5BFB3",
"0. c #E7B5AC",
"q. c #E8B8AE",
"w. c #EABFAF",
"e. c #EADC83",
"r. c #EADC84",
"t. c #D8C0A4",
"y. c #DCC3A4",
"u. c #DFC9A4",
"i. c #C7C4B1",
"p. c #C7C4B3",
"a. c #CEC9B5",
"s. c #C9C5B9",
"d. c #D0CBB5",
"f. c #D3CFB6",
"g. c #D8C0BE",
"h. c #D0CBB8",
"j. c #D8CABD",
"k. c #D5D1B8",
"l. c #D7D2BC",
"z. c #D8D4B9",
"x. c #D9D5BA",
"c. c #D8D3BF",
"v. c #E1C7A4",
"b. c #E0C6A5",
"n. c #E4CBA3",
"m. c #E7CFA3",
"M. c #E0C8A4",
"N. c #E3CBA5",
"B. c #E4CAA5",
"V. c #E6CAA5",
"C. c #E5CBA6",
"Z. c #E7CBA6",
"A. c #E5CCA4",
"S. c #E4CDA4",
"D. c #E5CEA5",
"F. c #E7CEA5",
"G. c #E6CFA5",
"H. c #E7CEA6",
"J. c #E8CFA6",
"K. c #E8CFA7",
"L. c #EACEA6",
"P. c #EBCFA7",
"I. c #E7D0A4",
"U. c #E7D0A6",
"Y. c #E7D0A7",
"T. c #E8D0A4",
"R. c #E9D0A7",
"E. c #E2C6B1",
"W. c #EAC0B0",
"Q. c #E9C3B0",
"!. c #EAC4B1",
"~. c #ECC9B3",
"^. c #EED0B6",
"/. c #E0DDBA",
"(. c #E7E5BC",
"). c #E6E4BD",
"_. c #E6E7BD",
"`. c #EFE1BA",
"'. c #ECEBBD",
"]. c #EEEDBF",
"[. c #EFEEBE",
"{. c #F0E2BB",
"}. c #F1E3BC",
"|. c #F1E8BD",
" X c #F3ECBE",
".X c #F1EFBE",
"XX c #F2F0BF",
"oX c #F4F2BF",
"OX c #D9D1DC",
"+X c #D9D1DE",
"@X c #DED8DA",
"#X c #E0D7DA",
"$X c #EBE8C7",
"%X c #EEECC6",
"&X c #ECE9CA",
"*X c #F3E4C3",
"=X c #F1ECC2",
"-X c #F3ECC2",
";X c #F2F0C0",
":X c #F3F1C0",
">X c #F3F3C1",
",X c #F5F1C1",
"<X c #F4F2C1",
"1X c #F4F2C2",
"2X c #F5F3C2",
/* pixels */
"J.J.J.J.J.J.J.J.J.J.J.J.J.J.J.J.T.J.J.J.J.J.J.J.J.J.J.J.J.J.J.J.",
"J.J.J.J.J.J.J.J.Y.J.J.J.K.F.J.F.J.J.J.U.J.K.J.J.J.J.J.J.J.J.J.J.",
"J.J.J.J.J.J.J.J.J.J.J.J.T.J.J.J.J.J.J.U.F.U.J.J.J.J.J.J.J.J.J.J.",
"J.J.J.J.J.J.J.J.J.J.J.J.F.J.J.J.J.J.K.J.L.J.J.J.J.J.J.J.J.J.J.J.",
"J.J.J.J.J.J.J.J.J.U.J.J.K.K.-.x x c V M.J.J.T.J.J.J.J.J.J.J.J.J.",
"J.J.J.J.J.J.J.J.J.T.J.G.S.1.| s y a v +.6.J.J.J.J.J.J.J.J.J.J.J.",
"J.J.J.J.J.J.J.J.J.J.J.R.y.3 X.].].].d.; F J.J.J.J.J.J.J.J.J.J.J.",
"J.J.J.J.J.J.J.J.J.J.J.:.t & X. X^.~.E.7.} B C.J.J.J.J.J.J.J.J.J.",
"J.J.J.J.J.J.J.J.J.H.,. .R T &.|.w.0.Q. X/ q B.J.J.J.J.J.J.J.J.J.",
"J.J.J.J.J.J.J.J.J.B.e ( 2X<X2X|.W.q.!. X^ e B.J.J.J.J.J.J.J.J.J.",
"J.J.J.J.J.J.J.J.J.B.e ` <X<X<X.X{.`.}.XX( e Z.J.J.J.J.J.J.J.J.J.",
"J.J.J.J.J.J.J.J.R.B.e ( <X<X<X2X<X<X<X<X( e n.J.J.J.J.J.J.J.J.J.",
"J.J.J.J.J.J.J.J.B.5.w ` <X<X<X2X<X<X1X<X^ w 5.N.J.J.J.J.J.J.J.J.",
"J.J.J.J.J.J.J.J.>.5 # ( <X<X<X<X,X<X,XoX( $ 5 ;.J.J.J.J.J.J.J.J.",
"J.J.J.J.J.J.J.J.K o Y 8.'.#.a.<X<X<X,X<X) - n 3.J.J.J.J.J.J.J.J.",
"J.J.J.J.J.J.J.J.J + i.<X(.I O.<X<X2X:X<X( 2 3.u.J.J.J.J.J.J.J.J.",
"J.J.J.J.J.J.J.J.J + p.,XXX/.).<X2X<X<X<X( @ , L J.J.J.J.J.J.J.J.",
"J.J.J.J.J.J.J.J.J + p.<X<X<X-X*X*X=X:X<X( > N 4.J.J.J.J.J.J.J.J.",
"J.J.J.J.J.J.J.J.>.1 @.k.z.x.j.g.g.j.l.f._ b A.J.J.J.J.J.J.J.J.J.",
"J.J.J.J.J.J.J.J.V.t.u 4 h h g f f d 0 : D b.J.J.J.J.J.J.J.J.J.J.",
"J.J.J.J.J.J.J.J.J.G.=.k 8 7 9 9 7 [ *.%.~ A D.J.J.J.J.J.J.J.J.J.",
"J.J.J.J.J.J.J.J.T.I.r.H 6 ! ] ] ] s.%X#X' e B.K.J.J.J.J.J.J.J.J.",
"J.J.J.J.J.J.J.J.J.I.e.G = h.[.[.[.;X%X@X' e B.J.J.J.J.J.J.J.J.J.",
"J.J.J.J.J.J.J.J.J.D.M Z 9._.<X<X>X&.U j { ,.H.F.J.J.J.J.J.J.J.J.",
"J.J.J.J.J.J.J.J.J.n.e E &X$Xc.$.$.P   . S U.T.J.J.J.J.J.J.J.J.J.",
"J.J.J.J.J.J.J.J.J.B.r Q +XOXo.O X . X % F R.J.J.J.J.J.J.J.J.J.J.",
"J.J.J.J.J.J.J.J.J.H.2...p i W F * . < J t.J.J.J.J.J.J.J.J.J.J.J.",
"J.J.J.J.J.J.J.J.J.J.J.<.z x +.y.m l C v.J.T.J.R.J.J.J.J.J.J.J.J.",
"J.J.J.J.J.J.J.J.J.J.U.J.J.J.J.J.T.J.J.J.J.J.T.R.J.J.J.J.J.J.J.J.",
"J.J.J.J.J.J.J.J.J.J.J.m.J.J.J.J.J.J.F.J.T.T.J.J.J.J.J.J.J.J.J.J.",
"J.J.J.J.J.J.J.J.F.J.J.U.J.J.J.J.J.J.J.L.J.J.U.J.J.J.J.J.J.J.J.J.",
"J.J.J.J.J.J.J.J.Y.J.U.J.J.J.P.J.J.J.J.L.J.J.J.J.J.J.J.J.J.J.J.J."
};
