/* XPM */
static char *left4_resized[] = {
/* columns rows colors chars-per-pixel */
"32 32 200 2 ",
"   c #5B4F91",
".  c #5B4E93",
"X  c #5B4E94",
"o  c #5C4F94",
"O  c #5F5093",
"+  c #615293",
"@  c #625293",
"#  c #625492",
"$  c #655593",
"%  c #675593",
"&  c #615295",
"*  c #605496",
"=  c #665893",
"-  c #665895",
";  c #695C94",
":  c #6A5F97",
">  c #7A6C8D",
",  c #6E6095",
"<  c #6D6096",
"1  c #69609F",
"2  c #726195",
"3  c #706295",
"4  c #7E6D97",
"5  c #7D6E97",
"6  c #73699E",
"7  c #7A6898",
"8  c #7F6E98",
"9  c #6D63A2",
"0  c #756BA8",
"q  c #7D73A7",
"w  c #817196",
"e  c #807097",
"r  c #827297",
"t  c #867597",
"y  c #877698",
"u  c #867C9F",
"i  c #8A7999",
"p  c #897A99",
"a  c #8072A5",
"s  c #8074A6",
"d  c #857BA0",
"f  c #867CA1",
"g  c #8177AC",
"h  c #8278AC",
"j  c #827AAD",
"k  c #998E92",
"l  c #95819A",
"z  c #96829B",
"x  c #93879F",
"c  c #98859B",
"v  c #9C869B",
"b  c #9C899C",
"n  c #A69790",
"m  c #A4909B",
"M  c #A6929D",
"N  c #A7939E",
"B  c #AC999D",
"V  c #AF9B9D",
"C  c #B19D9E",
"Z  c #B0A683",
"A  c #B8AE8A",
"S  c #B8A39E",
"D  c #BAA29E",
"F  c #BEAA9F",
"G  c #8F86A1",
"H  c #9285A1",
"J  c #9086A1",
"K  c #9085A3",
"L  c #9187A2",
"P  c #9D8EA3",
"I  c #9184AF",
"U  c #968DA8",
"Y  c #9E93A3",
"T  c #9890A5",
"R  c #9992A4",
"E  c #9991A6",
"W  c #9A91A6",
"Q  c #9A92A7",
"!  c #9991A8",
"~  c #9990AF",
"^  c #8B81B5",
"/  c #988DB7",
"(  c #988DB8",
")  c #A094A2",
"_  c #A595A0",
"`  c #A796A0",
"'  c #A694A2",
"]  c #A39BA8",
"[  c #A59CAD",
"{  c #A094B8",
"}  c #A9A2A9",
"|  c #A9A2AA",
" . c #ABA3AE",
".. c #AEA8AA",
"X. c #AFA9AB",
"o. c #BAA7A0",
"O. c #BBA7A0",
"+. c #BAB3AD",
"@. c #BDB6AE",
"#. c #BDB9B0",
"$. c #BEBABB",
"%. c #C0B08C",
"&. c #C1ABA0",
"*. c #C3ABA1",
"=. c #C2ABA3",
"-. c #C3ADA0",
";. c #C2ACA1",
":. c #C5AFA1",
">. c #C6B0A2",
",. c #C9B4A3",
"<. c #CCB5A3",
"1. c #CEB4A3",
"2. c #CDB7A2",
"3. c #D0BAA3",
"4. c #D7BFA3",
"5. c #D8BEA3",
"6. c #C3BBB0",
"7. c #C4BEB2",
"8. c #C5BFB3",
"9. c #C1BEB9",
"0. c #D7BFBD",
"q. c #E7B5AC",
"w. c #E8B8AE",
"e. c #EABFAF",
"r. c #EADC84",
"t. c #D9C0A2",
"y. c #DCC3A4",
"u. c #DFC9A4",
"i. c #C7C4B1",
"p. c #C7C4B3",
"a. c #CEC9B5",
"s. c #D0CBB5",
"d. c #D2CEB5",
"f. c #D3CFB6",
"g. c #D7CBBD",
"h. c #D8CABD",
"j. c #D7D3B8",
"k. c #D6D2B9",
"l. c #D5D3BE",
"z. c #D9D5BA",
"x. c #E4CBA3",
"c. c #E0C8A4",
"v. c #E3CBA5",
"b. c #E0C8A6",
"n. c #E4CAA5",
"m. c #E6CAA5",
"M. c #E5CBA6",
"N. c #E7CBA6",
"B. c #E5CCA4",
"V. c #E4CDA4",
"C. c #E5CEA5",
"Z. c #E7CEA5",
"A. c #E6CFA5",
"S. c #E7CEA6",
"D. c #E9CDA5",
"F. c #EACFA4",
"G. c #E8CFA6",
"H. c #E8CFA7",
"J. c #EACEA6",
"K. c #E7D0A4",
"L. c #E7D0A6",
"P. c #E7D0A7",
"I. c #E8D0A4",
"U. c #E9D0A7",
"Y. c #E9D0A8",
"T. c #E2C6B1",
"R. c #EAC0B0",
"E. c #E9C3B0",
"W. c #EAC4B1",
"Q. c #ECC9B3",
"!. c #EED0B6",
"~. c #E0DDBA",
"^. c #E3E0BD",
"/. c #E7E5BC",
"(. c #E6E4BD",
"). c #EFE1BA",
"_. c #E8E6BD",
"`. c #ECEBBD",
"'. c #EEEDBF",
"]. c #F0E2BB",
"[. c #F1E3BC",
"{. c #F1E8BD",
"}. c #F3ECBE",
"|. c #F1EFBE",
" X c #F0F0BE",
".X c #F2F0BF",
"XX c #F4F2BF",
"oX c #B5ADC5",
"OX c #D8C0C0",
"+X c #D9D1DC",
"@X c #E0DBD8",
"#X c #EBE8C9",
"$X c #F3E4C3",
"%X c #F3ECC2",
"&X c #F0EDC4",
"*X c #F3F1C0",
"=X c #F5F1C1",
"-X c #F4F2C1",
";X c #F4F2C2",
":X c #F5F3C2",
/* pixels */
"G.G.G.G.G.G.G.G.G.G.G.G.G.G.G.G.I.G.G.G.G.G.G.G.G.G.G.G.G.G.G.G.",
"G.G.G.G.G.G.G.G.P.G.G.G.H.Z.G.Z.G.G.G.L.G.H.G.G.G.G.G.G.G.G.G.G.",
"G.G.G.G.G.G.G.G.G.G.G.G.I.G.G.G.G.G.G.L.Z.L.G.G.G.G.G.G.G.G.G.G.",
"G.G.G.G.G.G.G.G.G.G.G.G.Z.G.G.G.G.G.H.G.J.G.G.G.G.G.G.G.G.G.G.G.",
"G.G.G.G.G.G.G.G.G.L.G.G.H.H.&.l l z N c.G.G.I.G.G.G.G.G.G.G.G.G.",
"G.G.G.G.G.G.G.G.G.I.G.A.V.,._ f u d x O.5.G.G.G.G.G.G.G.G.G.G.G.",
"G.G.G.G.G.G.G.G.G.G.G.U.y.5 ] '.'.'.s.< C G.G.G.G.G.G.G.G.G.G.G.",
"G.G.G.G.G.G.G.G.G.G.G.-.y = ] }.!.Q.T.6.) M M.G.G.G.G.G.G.G.G.G.",
"G.G.G.G.G.G.G.G.G.S.:.` K J #.{.e.q.E.}.R w n.G.G.G.G.G.G.G.G.G.",
"G.G.G.G.G.G.G.G.G.n.r E :X-X:X{.R.w.W.}.T r n.G.G.G.G.G.G.G.G.G.",
"G.G.G.G.G.G.G.G.G.n.r ! -X-X-X|.].).[..XE r N.G.G.G.G.G.G.G.G.G.",
"G.G.G.G.G.G.G.G.U.n.r E -X-X-X:X-X-X-X-XE r x.G.G.G.G.G.G.G.G.G.",
"G.G.G.G.G.G.G.G.n.4.e ! -X-X-X:X-X-X;X-XT e 4.v.G.G.G.G.G.G.G.G.",
"G.G.G.G.G.G.G.G.;.7 $ E -X-X-X-X=X-X=XXXE % 7 =.G.G.G.G.G.G.G.G.",
"G.G.G.G.G.G.G.G.D O H 7.`.@.a.-X-X-X=X-XW , b 2.G.G.G.G.G.G.G.G.",
"G.G.G.G.G.G.G.G.S + i.-X/.G ..-X-X:X*X-XE 4 2.u.G.G.G.G.G.G.G.G.",
"G.G.G.G.G.G.G.G.S & p.-X X~.(.-X-X-X-X-X! # 3 F G.G.G.G.G.G.G.G.",
"G.G.G.G.G.G.G.G.S @ p.-X-XXX%X$X$X%X-X-XQ 2 m 3.G.G.G.G.G.G.G.G.",
"G.G.G.G.G.G.G.G.;.8 +.k.z.z.h.0.OXg.j.f.Y v B.G.G.G.G.G.G.G.G.G.",
"G.G.G.G.G.G.G.G.n.t.p 6 j j h g g h q : B b.G.L.G.G.G.G.G.G.G.G.",
"G.G.G.G.G.G.G.G.G.A.%.k 0 1 ^ oX$.9. .- V G.G.G.G.G.G.G.G.G.G.G.",
"G.G.G.G.G.G.G.G.L.K.r.A 9 * ( @X&X-Xd.; V G.G.G.G.G.G.G.G.G.G.G.",
"G.G.G.G.G.G.G.G.G.K.r.Z o . / @X&XXXd.; V J.G.G.G.G.G.G.G.G.G.G.",
"G.G.G.G.G.G.G.G.G.C.n > - } [ ~ ^.-X_.8.) M M.G.G.G.G.G.G.G.G.G.",
"G.G.G.G.G.G.G.G.Z.m.r   - | L : X.l.#X#XU r n.Y.G.G.G.G.G.G.G.G.",
"G.G.G.G.G.G.G.G.L.x.t O . . O + + { +X+XI t M.G.G.G.G.G.G.G.G.G.",
"G.G.G.G.G.G.G.G.G.H.1.c . X i &.*.P s a ' <.S.G.G.G.G.G.G.G.G.G.",
"G.G.G.G.G.G.G.G.G.G.G.>.l l o.G.G.O.l l >.G.G.Z.G.G.G.G.G.G.G.G.",
"G.G.G.G.G.G.G.G.G.L.L.G.G.F.I.G.G.J.J.I.G.G.G.G.G.G.G.G.G.G.G.G.",
"G.G.G.G.G.G.G.G.G.U.G.G.Z.G.G.G.G.G.G.G.G.J.G.G.G.G.G.G.G.G.G.G.",
"G.G.G.G.G.G.G.G.G.G.G.L.G.H.G.D.G.G.G.G.G.G.G.G.G.G.G.G.G.G.G.G.",
"G.G.G.G.G.G.G.G.G.G.G.G.G.G.G.G.G.G.G.G.G.G.I.D.G.G.G.G.G.G.G.G."
};
