/* XPM */
static char *left2_resized[] = {
/* columns rows colors chars-per-pixel */
"32 32 184 2 ",
"   c #5F5393",
".  c #5B5094",
"X  c #615391",
"o  c #605192",
"O  c #615293",
"+  c #625492",
"@  c #615295",
"#  c #655794",
"$  c #675996",
"%  c #695A93",
"&  c #6A5D95",
"*  c #6A5C97",
"=  c #6E6197",
"-  c #6F649E",
";  c #726195",
":  c #706295",
">  c #726495",
",  c #746495",
"<  c #7B6A96",
"1  c #7E6D97",
"2  c #776A98",
"3  c #796E98",
"4  c #7B6EA4",
"5  c #776DAA",
"6  c #766EAA",
"7  c #776DAC",
"8  c #786CAA",
"9  c #837197",
"0  c #817397",
"q  c #827297",
"w  c #867597",
"e  c #867C9F",
"r  c #8E7B99",
"t  c #8074A6",
"y  c #877DA0",
"u  c #847CAD",
"i  c #9A8894",
"p  c #90809B",
"a  c #948099",
"s  c #95819A",
"d  c #90839F",
"f  c #A38E9D",
"g  c #A18C9F",
"h  c #A48F9E",
"j  c #A6929D",
"k  c #A7939E",
"l  c #AD989D",
"z  c #AF999C",
"x  c #AF9B9D",
"c  c #B19D9E",
"v  c #AEA28A",
"b  c #B4AA87",
"n  c #B3AA8D",
"m  c #B8A39E",
"M  c #B9A49F",
"N  c #BEAA9F",
"B  c #8B83AC",
"V  c #8F84AF",
"C  c #9789A0",
"Z  c #978EA3",
"A  c #9387AF",
"S  c #998BAC",
"D  c #9890A5",
"F  c #9A91A4",
"G  c #9991A6",
"H  c #9A92A7",
"J  c #9991A8",
"K  c #998DB5",
"L  c #A696A3",
"P  c #A291A4",
"I  c #A194A5",
"U  c #A896A4",
"Y  c #A29AA7",
"T  c #A599A5",
"R  c #A998A0",
"E  c #A49CA9",
"W  c #B19FB7",
"Q  c #A8A2AC",
"!  c #B8A3A0",
"~  c #BBA7A0",
"^  c #B1A4AB",
"/  c #B1A8AB",
"(  c #B4ACAA",
")  c #B0AAAC",
"_  c #B4AFAC",
"`  c #BDBBAF",
"'  c #BEBAAF",
"]  c #ADA7B1",
"[  c #AFAAB1",
"{  c #B1A6B6",
"}  c #B1ACB3",
"|  c #B2ACB6",
" . c #C0A9A1",
".. c #C1ABA0",
"X. c #C2AAA0",
"o. c #C1ADA2",
"O. c #C6B1A0",
"+. c #C6B0A2",
"@. c #C8B3A2",
"#. c #CCB5A3",
"$. c #CDB7A2",
"%. c #CAB5A4",
"&. c #D0BAA3",
"*. c #D5BDA3",
"=. c #D2BCA4",
"-. c #C1BCB8",
";. c #C0BDB8",
":. c #D1BFB1",
">. c #E7B5AC",
",. c #E8B8AE",
"<. c #E0D287",
"1. c #E9DB83",
"2. c #EAD88E",
"3. c #D8C0A4",
"4. c #DCC3A4",
"5. c #DEC3A5",
"6. c #DBC4A5",
"7. c #DFC7A5",
"8. c #C7C1B3",
"9. c #C7C4B3",
"0. c #C8C2B4",
"q. c #D2CEB5",
"w. c #D2CDB7",
"e. c #D3CFB6",
"r. c #D4CFBC",
"t. c #D9D5B8",
"y. c #DAD9BB",
"u. c #E0C8A4",
"i. c #E4CAA5",
"p. c #E5CBA6",
"a. c #E5CCA4",
"s. c #E4CDA4",
"d. c #E6CDA5",
"f. c #E7CEA5",
"g. c #E7CEA6",
"h. c #E9CDA5",
"j. c #E8CFA6",
"k. c #E8CFA7",
"l. c #EACEA6",
"z. c #EACEA7",
"x. c #E7D0A4",
"c. c #E7D0A6",
"v. c #E8D0A4",
"b. c #E9D0A7",
"n. c #EDCBB2",
"m. c #EECAB4",
"M. c #EDD2B5",
"N. c #ECD3B5",
"B. c #EED7B7",
"V. c #EEDAB7",
"C. c #E0DEB8",
"Z. c #EFDDB9",
"A. c #E8E6BD",
"S. c #E9E7BE",
"D. c #EBEABE",
"F. c #EEEDBF",
"G. c #F0E1BA",
"H. c #F2E0BA",
"J. c #F0E9BD",
"K. c #F1EFBE",
"L. c #F2F0BF",
"P. c #F4F2BF",
"I. c #BEB5C8",
"U. c #D3CBD6",
"Y. c #D9D1DC",
"T. c #DED8DA",
"R. c #F2DCC4",
"E. c #E3E0C1",
"W. c #E6E3C2",
"Q. c #EEEDC1",
"!. c #EFEEC0",
"~. c #EFEDC7",
"^. c #ECE7C9",
"/. c #F5E7C2",
"(. c #F4E8C2",
"). c #F2EEC1",
"_. c #F3EFC2",
"`. c #F3F1C0",
"'. c #F3F3C1",
"]. c #F4F0C0",
"[. c #F5F1C1",
"{. c #F4F2C1",
"}. c #F4F2C2",
"|. c #F5F3C2",
/* pixels */
"j.j.j.j.j.j.j.j.j.j.j.j.j.j.c.j.j.j.j.j.j.l.j.j.j.j.j.j.j.j.j.j.",
"j.j.j.j.j.j.j.j.j.j.j.j.j.j.v.j.j.j.j.j.j.j.j.j.j.j.j.j.j.j.j.j.",
"j.j.j.j.j.j.j.j.j.j.j.j.f.v.j.j.f.j.j.j.j.j.j.c.j.j.j.j.j.j.j.j.",
"j.j.j.j.j.j.j.j.j.j.k.j.j.c.f.j.j.j.j.j.j.b.j.j.j.j.j.j.j.j.j.j.",
"j.j.j.j.j.j.j.j.j.j.j.j.j.j.j.4.f s a s +.j.l.l.j.j.j.j.j.j.j.j.",
"j.j.j.j.j.j.j.j.j.j.j.3...X...! d y e e R #.g.j.j.j.j.j.j.j.j.j.",
"j.j.j.j.j.j.j.j.j.j.j.c @ O O 2 t.!.F.Q.F w p.v.j.j.j.j.j.j.j.j.",
"j.j.j.j.j.j.j.j.j.p.j I ` ' ' 0.D.Z.m.n.:./ r @.j.j.j.j.j.j.j.j.",
"j.j.j.j.j.j.j.j.j.i.9 G }.{.{.P.{.M.>.>.V.9.  m j.j.j.j.j.j.j.j.",
"j.j.j.j.j.j.j.j.z.p.q J {.{.{.}.`.N.,.,.B.8.# M j.j.j.j.j.j.j.j.",
"j.j.j.j.j.j.j.j.j.i.0 H {.{.}.{.{.J.H.G.^ C  .6.j.j.j.j.j.j.j.j.",
"j.j.j.j.j.j.j.j.*.l , D {.{.{.P.|.'.{.{.D > l *.j.j.j.j.j.j.j.j.",
"j.j.j.j.j.j.j.j.m . $ Y ].A.D.{.{.[.{.{.G o % ~ j.j.j.j.j.j.j.j.",
"j.j.j.j.j.j.j.j.m O ) C.S.Z _ {.{.|.{.{.G < O.7.j.j.j.j.j.j.j.j.",
"j.j.j.j.j.j.j.j.m O 9.[.D._ 9.{.{.{.{.{.G ; h &.j.j.j.j.j.j.j.j.",
"j.j.j.j.j.j.j.j.m X 9.{.`.{.K.)._.L.{.{.G + : N j.j.j.j.j.j.j.j.",
"j.j.j.j.j.j.j.j.m O 9.{.{.{.(.R.R./.|.P.G 1 $.u.j.j.j.j.j.j.j.j.",
"j.j.j.j.j.j.j.j.&.k T Q } } { W W { [ E L M d.j.j.j.j.j.j.j.j.j.",
"j.j.j.j.j.j.j.j.j.a.i 3 6 5 5 7 5 u B 4 U =.g.l.j.j.j.j.j.j.j.j.",
"j.j.j.j.j.j.j.j.j.b.<.n 5 7 5 5 8 | E.U.A r i.j.j.j.j.j.j.j.j.j.",
"j.j.j.j.j.j.j.j.j.x.1.b - ] ;.;.-.y.~.T.V q i.f.j.j.j.j.j.j.j.j.",
"j.j.j.j.j.j.j.j.j.j.2.v & q.{.{.{.}.W.I.S g p.j.j.j.j.j.j.j.j.j.",
"j.j.j.j.j.j.j.j.j.c.l.x * q.{.`.[.{.e.= z p.k.j.j.j.j.j.j.j.j.j.",
"j.j.j.j.j.j.j.j.j.j.j.x & w.{.{.{.{.q.& x j.c.j.j.j.j.j.j.j.j.j.",
"j.j.j.j.j.j.j.j.j.j.l.o.p ( r.^.^.r.( p o.l.j.j.j.j.j.j.j.j.j.j.",
"j.j.j.j.j.j.j.j.f.j.j.j.5.1 K Y.Y.K 1 5.j.j.j.f.j.j.j.j.j.j.j.j.",
"j.j.j.j.j.j.j.j.j.j.j.c.s.%.P t t P %.s.c.j.j.j.j.j.j.j.j.j.j.j.",
"j.j.j.j.j.j.j.j.j.j.j.l.j.j...s s ..j.j.l.j.j.j.j.j.j.j.j.j.j.j.",
"j.j.j.j.j.j.j.j.f.j.j.k.v.j.j.j.j.j.j.v.k.j.j.f.j.j.j.j.j.j.j.j.",
"j.j.j.j.j.j.j.j.j.j.j.j.j.j.j.j.j.j.j.j.j.j.j.j.j.j.j.j.j.j.j.j.",
"j.j.j.j.j.j.j.j.c.j.j.j.j.j.j.j.j.j.j.j.j.j.j.c.j.j.j.j.j.j.j.j.",
"j.j.j.j.j.j.j.j.j.j.h.j.j.f.j.c.c.j.f.j.j.h.j.j.j.j.j.j.j.j.j.j."
};
