/* XPM */
static char *left1_resized[] = {
/* columns rows colors chars-per-pixel */
"32 32 189 2 ",
"   c #5F5093",
".  c #605192",
"X  c #615293",
"o  c #625492",
"O  c #655593",
"+  c #675593",
"@  c #665893",
"#  c #6A5D95",
"$  c #6B5E96",
"%  c #6E6095",
"&  c #6D6096",
"*  c #6A6198",
"=  c #726195",
"-  c #706295",
";  c #7E6D97",
":  c #7D6E97",
">  c #73699E",
",  c #7A6898",
"<  c #7369A5",
"1  c #766CA9",
"2  c #776DAA",
"3  c #7D73A7",
"4  c #817196",
"5  c #807097",
"6  c #827296",
"7  c #827297",
"8  c #877698",
"9  c #867C9F",
"0  c #897A9B",
"q  c #8074A6",
"w  c #857BA0",
"e  c #867CA1",
"r  c #8177AB",
"t  c #8077AC",
"y  c #827AAB",
"u  c #8278AD",
"i  c #8379AD",
"p  c #827AAD",
"a  c #998E92",
"s  c #90809B",
"d  c #95819A",
"f  c #96829B",
"g  c #93879F",
"h  c #9A879B",
"j  c #9C899C",
"k  c #A38F9B",
"l  c #A6929D",
"z  c #A7939E",
"x  c #AD989D",
"c  c #AD9A9E",
"v  c #B09E94",
"b  c #B19D9E",
"n  c #B0A683",
"m  c #B8AF88",
"M  c #B8A39E",
"N  c #BAA29E",
"B  c #BEAA9F",
"V  c #8F86A1",
"C  c #9285A1",
"Z  c #9086A1",
"A  c #9085A3",
"S  c #9287AF",
"D  c #9088AD",
"F  c #9D8FA9",
"G  c #9E93A3",
"H  c #9890A5",
"J  c #9992A4",
"K  c #9991A6",
"L  c #9A91A6",
"P  c #9991A8",
"I  c #9085B0",
"U  c #9084B2",
"Y  c #998DB5",
"T  c #9992B1",
"R  c #9A93B2",
"E  c #9C96B0",
"W  c #A792A3",
"Q  c #A094A2",
"!  c #A595A0",
"~  c #A796A0",
"^  c #A291A4",
"/  c #A39BA8",
"(  c #AEA8AA",
")  c #BBA7A0",
"_  c #B4ACAA",
"`  c #BAB3AD",
"'  c #BDB6AE",
"]  c #ABA0BE",
"[  c #BDB9B0",
"{  c #BBB5B9",
"}  c #C0B08C",
"|  c #C1ABA0",
" . c #C2ABA3",
".. c #C3ADA0",
"X. c #C2ACA1",
"o. c #C1ADA2",
"O. c #C5AFA1",
"+. c #C9B4A3",
"@. c #CDB7A2",
"#. c #CAB5A4",
"$. c #D0BAA3",
"%. c #D7BFA3",
"&. c #D8BEA3",
"*. c #C3BBB0",
"=. c #C4BEB2",
"-. c #E7B5AC",
";. c #E8B8AE",
":. c #EABFAF",
">. c #EADC84",
",. c #E9D39A",
"<. c #D9C2A3",
"1. c #DCC3A4",
"2. c #DEC3A5",
"3. c #DFC9A4",
"4. c #C7C4B1",
"5. c #C7C4B3",
"6. c #C7C4B5",
"7. c #CEC9B5",
"8. c #C9C5B9",
"9. c #D0CBB5",
"0. c #D0CBB7",
"q. c #D2CEB5",
"w. c #D3CFB6",
"e. c #D8C0BE",
"r. c #D4CFBC",
"t. c #D8CABD",
"y. c #D4D2B9",
"u. c #D7D3BA",
"i. c #D7D6BA",
"p. c #D9D5BA",
"a. c #DAD9BB",
"s. c #E0C6A5",
"d. c #E4CBA3",
"f. c #E0C8A4",
"g. c #E3CBA5",
"h. c #E4CAA5",
"j. c #E5CBA6",
"k. c #E7CBA6",
"l. c #E5CCA4",
"z. c #E4CDA4",
"x. c #E5CEA5",
"c. c #E7CEA5",
"v. c #E6CFA5",
"b. c #E7CEA6",
"n. c #E9CDA5",
"m. c #E8CFA6",
"M. c #E8CFA7",
"N. c #EACEA6",
"B. c #E7D0A4",
"V. c #E7D0A6",
"C. c #E7D0A7",
"Z. c #E8D0A4",
"A. c #E9D0A7",
"S. c #E2C6B1",
"D. c #EAC0B0",
"F. c #E9C3B0",
"G. c #EAC4B1",
"H. c #ECC9B3",
"J. c #EED0B6",
"K. c #E0DDBA",
"L. c #E7E5BC",
"P. c #E6E4BD",
"I. c #EFE1BA",
"U. c #ECEBBD",
"Y. c #EEEDBF",
"T. c #EFEEBE",
"R. c #F0E2BB",
"E. c #F1E3BC",
"W. c #F1E8BD",
"Q. c #F3ECBE",
"!. c #F1EFBE",
"~. c #F0EFBF",
"^. c #F1F1BF",
"/. c #F2F0BF",
"(. c #F4F2BF",
"). c #F5F2BF",
"_. c #D9D1DC",
"`. c #DED8DA",
"'. c #EEECC6",
"]. c #ECE7C9",
"[. c #F3E4C3",
"{. c #F3ECC2",
"}. c #F4EDC3",
"|. c #F1F0C0",
" X c #F3F1C0",
".X c #F5F1C1",
"XX c #F4F2C1",
"oX c #F4F2C2",
"OX c #F5F3C2",
/* pixels */
"m.m.m.m.m.m.m.m.m.m.m.m.m.m.m.m.Z.m.m.m.m.m.m.m.m.m.m.m.m.m.m.m.",
"m.m.m.m.m.m.m.m.C.m.m.m.M.c.m.c.m.m.m.V.m.M.m.m.m.m.m.m.m.m.m.m.",
"m.m.m.m.m.m.m.m.m.m.m.m.Z.m.m.m.m.m.m.V.c.V.m.m.m.m.m.m.m.m.m.m.",
"m.m.m.m.m.m.m.m.m.m.m.m.c.m.m.m.m.m.M.m.N.m.m.m.m.m.m.m.m.m.m.m.",
"m.m.m.m.m.m.m.m.m.V.m.m.M.M.| d d f z f.m.m.Z.m.m.m.m.m.m.m.m.m.",
"m.m.m.m.m.m.m.m.m.Z.m.v.z.+.! e 9 w g ) &.m.m.m.m.m.m.m.m.m.m.m.",
"m.m.m.m.m.m.m.m.m.m.m.A.1.: / Y.Y.Y.9.& b m.m.m.m.m.m.m.m.m.m.m.",
"m.m.m.m.m.m.m.m.m.m.m...8 @ / Q.J.H.S.*.Q l j.m.m.m.m.m.m.m.m.m.",
"m.m.m.m.m.m.m.m.m.b.O.~ A Z [ W.:.-.F.Q.J 4 h.m.m.m.m.m.m.m.m.m.",
"m.m.m.m.m.m.m.m.m.h.7 K OXXXOXW.D.;.G.Q.H 7 h.m.m.m.m.m.m.m.m.m.",
"m.m.m.m.m.m.m.m.m.h.7 P XXXXXX!.R.I.E./.K 7 k.m.m.m.m.m.m.m.m.m.",
"m.m.m.m.m.m.m.m.A.h.7 K XXXXXXOXXXXXXXXXK 7 d.m.m.m.m.m.m.m.m.m.",
"m.m.m.m.m.m.m.m.h.%.5 P XXXXXXOXXXXXoXXXH 5 %.g.m.m.m.m.m.m.m.m.",
"m.m.m.m.m.m.m.m.X., O K XXXXXXXX.XXX.X(.K + ,  .m.m.m.m.m.m.m.m.",
"m.m.m.m.m.m.m.m.N   C =.U.' 7.XXXXXX.XXXL % j @.m.m.m.m.m.m.m.m.",
"m.m.m.m.m.m.m.m.M X 4.XXL.V ( XXXXOX XXXK ; @.3.m.m.m.m.m.m.m.m.",
"m.m.m.m.m.m.m.m.M . 5.XX^.K.P.XXOXXX(.).K o - B m.m.m.m.m.m.m.m.",
"m.m.m.m.m.m.m.m.M X 6.XXXXOX}.[.[.{.XXXXK = k $.m.m.m.m.m.m.m.m.",
"m.m.m.m.m.m.m.m.X.; ` y.p.i.t.e.e.t.u.w.G h l.m.m.m.m.m.m.m.m.m.",
"m.m.m.m.m.m.m.m.h.<.0 > y p i r t u 3 * c s.Z.m.m.m.m.m.m.m.m.m.",
"m.m.m.m.m.m.m.m.m.v.} a 2 2 2 1 2 E { ] F x x.V.m.m.m.m.m.m.m.m.",
"m.m.m.m.m.m.m.m.m.B.>.m < D T T R 8.'.`.U 7 j.m.m.m.m.m.m.m.m.m.",
"m.m.m.m.m.m.m.m.m.B.>.n $ 0.T.~.T.|.'.`.I 6 h.m.m.m.m.m.m.m.m.m.",
"m.m.m.m.m.m.m.m.m.N.,.v # q.XX.XXXXXa.S W O.b.Z.m.m.m.m.m.m.m.m.",
"m.m.m.m.m.m.m.m.m.m.N.o.s _ r.].].r._ s o.N.m.m.m.m.m.m.m.m.m.m.",
"m.m.m.m.m.m.m.m.c.m.m.m.2.; Y _._.Y ; 2.m.m.m.c.m.m.m.m.m.m.m.m.",
"m.m.m.m.m.m.m.m.m.m.m.V.z.#.^ q q ^ #.z.V.m.m.m.m.m.m.m.m.m.m.m.",
"m.m.m.m.m.m.m.m.m.m.m.N.m.m.| d d | m.m.N.m.m.m.m.m.m.m.m.m.m.m.",
"m.m.m.m.m.m.m.m.c.m.m.M.Z.m.m.m.m.m.m.Z.M.m.m.c.m.m.m.m.m.m.m.m.",
"m.m.m.m.m.m.m.m.m.m.m.m.m.m.m.m.m.m.m.m.m.m.m.m.m.m.m.m.m.m.m.m.",
"m.m.m.m.m.m.m.m.V.m.m.m.m.m.m.m.m.m.m.m.m.m.m.V.m.m.m.m.m.m.m.m.",
"m.m.m.m.m.m.m.m.m.m.n.m.m.c.m.V.V.m.c.m.m.n.m.m.m.m.m.m.m.m.m.m."
};
