/* XPM */
static char *right3_resized[] = {
/* columns rows colors chars-per-pixel */
"32 32 205 2 ",
"   c #5A4D92",
".  c #5B4E93",
"X  c #5E4F92",
"o  c #5F5093",
"O  c #605192",
"+  c #615293",
"@  c #655593",
"#  c #675593",
"$  c #615295",
"%  c #625394",
"&  c #665893",
"*  c #6D5C93",
"=  c #6B5E96",
"-  c #6E6095",
";  c #6D6096",
":  c #6B6098",
">  c #726195",
",  c #706295",
"<  c #736296",
"1  c #7E6E95",
"2  c #7E6D97",
"3  c #7D6E97",
"4  c #73699E",
"5  c #7A6898",
"6  c #7369A5",
"7  c #776DAA",
"8  c #766EAA",
"9  c #786EAB",
"0  c #7D73A7",
"q  c #817196",
"w  c #807097",
"e  c #837197",
"r  c #827297",
"t  c #867597",
"y  c #877698",
"u  c #867C9F",
"i  c #897A99",
"p  c #8074A6",
"a  c #8175A7",
"s  c #857BA0",
"d  c #867CA1",
"f  c #8177AB",
"g  c #8177AC",
"h  c #8278AC",
"j  c #827AAD",
"k  c #897DAB",
"l  c #988D95",
"z  c #948099",
"x  c #958298",
"c  c #95819A",
"v  c #96829B",
"b  c #93879F",
"n  c #99889B",
"m  c #9C899C",
"M  c #A48D9D",
"N  c #A89790",
"B  c #A5919D",
"V  c #A6929D",
"C  c #A7939E",
"Z  c #A7939F",
"A  c #A19899",
"S  c #AD989D",
"D  c #AF9B9D",
"F  c #AD9A9E",
"G  c #B19D9E",
"H  c #B0A683",
"J  c #B8AE8A",
"K  c #B8A39E",
"L  c #BEAA9F",
"P  c #8A81A0",
"I  c #8F86A1",
"U  c #8E85A4",
"Y  c #9285A1",
"T  c #9086A1",
"R  c #9085A3",
"E  c #968EA6",
"W  c #9D8EA3",
"Q  c #9184AF",
"!  c #9088AD",
"~  c #9E8EA9",
"^  c #9E93A3",
"/  c #9890A5",
"(  c #9992A4",
")  c #9991A6",
"_  c #9A91A6",
"`  c #9991A8",
"'  c #9085B0",
"]  c #9992B1",
"[  c #9D97B1",
"{  c #A593A3",
"}  c #A094A2",
"|  c #A595A0",
" . c #A796A0",
".. c #A694A2",
"X. c #A39BA8",
"o. c #A094B8",
"O. c #AEA8AA",
"+. c #BBA7A0",
"@. c #BAB3AB",
"#. c #BDB6AE",
"$. c #BEBAAF",
"%. c #ADA0BE",
"&. c #BDB9B0",
"*. c #BBB5B9",
"=. c #C0B18A",
"-. c #C1ABA0",
";. c #C3AAA3",
":. c #C3ADA0",
">. c #C2ACA1",
",. c #C5AFA1",
"<. c #C6B0A2",
"1. c #C9B4A3",
"2. c #CCB5A3",
"3. c #CDB7A2",
"4. c #D0BAA3",
"5. c #D7BFA3",
"6. c #D8BEA3",
"7. c #C3BBB0",
"8. c #C4BEB2",
"9. c #C5BFB3",
"0. c #E7B5AC",
"q. c #E8B8AE",
"w. c #EABFAF",
"e. c #EADC83",
"r. c #EADC84",
"t. c #D8C0A4",
"y. c #DCC3A4",
"u. c #C7C4B1",
"i. c #C7C4B3",
"p. c #CEC9B5",
"a. c #C9C5B9",
"s. c #D0CBB5",
"d. c #D3CFB6",
"f. c #D8C0BE",
"g. c #D0CBB8",
"h. c #D8CABD",
"j. c #D5D1B8",
"k. c #D7D2BC",
"l. c #D8D4B9",
"z. c #D9D5BA",
"x. c #D8D3BF",
"c. c #E1C7A4",
"v. c #E0C6A5",
"b. c #E4CBA3",
"n. c #E7CFA3",
"m. c #E0C8A4",
"M. c #E3CBA5",
"N. c #E4CAA5",
"B. c #E6CAA5",
"V. c #E5CBA6",
"C. c #E7CBA6",
"Z. c #E5CCA4",
"A. c #E4CDA4",
"S. c #E5CEA5",
"D. c #E7CEA5",
"F. c #E6CFA5",
"G. c #E7CEA6",
"H. c #E8CFA6",
"J. c #E8CFA7",
"K. c #EACEA6",
"L. c #EBCFA7",
"P. c #E7D0A4",
"I. c #E7D0A6",
"U. c #E7D0A7",
"Y. c #E8D0A4",
"T. c #E9D0A7",
"R. c #E2C6B1",
"E. c #EAC0B0",
"W. c #E9C3B0",
"Q. c #EAC4B1",
"!. c #ECC9B3",
"~. c #EED0B6",
"^. c #E0DDBA",
"/. c #E7E5BC",
"(. c #E6E4BD",
"). c #E6E7BD",
"_. c #EFE1BA",
"`. c #ECEBBD",
"'. c #EEEDBF",
"]. c #EFEEBE",
"[. c #F0E2BB",
"{. c #F1E3BC",
"}. c #F1E8BD",
"|. c #F3ECBE",
" X c #F1EFBE",
".X c #F3EFBF",
"XX c #F2F0BF",
"oX c #F4F2BF",
"OX c #D9D1DC",
"+X c #D9D1DE",
"@X c #DED8DA",
"#X c #E0D7DA",
"$X c #EBE8C7",
"%X c #EEECC6",
"&X c #ECE9CA",
"*X c #F3E4C3",
"=X c #F1ECC2",
"-X c #F3ECC2",
";X c #F2F0C0",
":X c #F3F1C0",
">X c #F3F3C1",
",X c #F5F1C1",
"<X c #F4F2C1",
"1X c #F4F2C2",
"2X c #F5F3C2",
/* pixels */
"H.H.H.H.H.H.H.H.H.H.H.H.H.H.H.Y.H.H.H.H.H.H.H.H.H.H.H.H.H.H.H.H.",
"H.H.H.H.H.H.H.H.H.H.J.H.I.H.H.H.D.H.D.J.H.H.H.U.H.H.H.H.H.H.H.H.",
"H.H.H.H.H.H.H.H.H.H.I.D.I.H.H.H.H.H.H.Y.H.H.H.H.H.H.H.H.H.H.H.H.",
"H.H.H.H.H.H.H.H.H.H.H.K.H.J.H.H.H.H.H.D.H.H.H.H.H.H.H.H.H.H.H.H.",
"H.H.H.H.H.H.H.H.H.Y.H.H.m.C v c c -.J.J.H.H.I.H.H.H.H.H.H.H.H.H.",
"H.H.H.H.H.H.H.H.H.H.H.6.+.b s u d | 1.A.F.H.Y.H.H.H.H.H.H.H.H.H.",
"H.H.H.H.H.H.H.H.H.H.H.G ; s.'.'.'.X.3 y.T.H.H.H.H.H.H.H.H.H.H.H.",
"H.H.H.H.H.H.H.H.H.V.V } 7.R.!.~.|.X.& y :.H.H.H.H.H.H.H.H.H.H.H.",
"H.H.H.H.H.H.H.H.K.N.q ( |.W.0.w.}.&.T R  .,.G.H.H.H.H.H.H.H.H.H.",
"H.H.H.H.H.H.H.H.H.N.r / |.Q.q.E.}.2X<X2X) r N.H.H.H.H.H.H.H.H.H.",
"H.H.H.H.H.H.H.H.H.C.e ) .X{._.[. X<X<X<X` r N.H.H.H.H.H.H.H.H.H.",
"H.H.H.H.H.H.H.H.H.b.r ) <X<X<X<X2X<X<X<X) r N.T.H.H.H.H.H.H.H.H.",
"H.H.H.H.H.H.H.H.M.5.w / ,X1X<X<X2X<X<X<X` w 6.N.H.H.H.H.H.H.H.H.",
"H.H.H.H.H.H.H.H.;.5 # ) oX<X<X<X<X<X<X<X) @ 5 >.H.H.H.H.H.H.H.H.",
"H.H.H.H.H.H.H.H.3.m - _ <X<X<X<X<Xp.#.`.8.Y o K H.H.H.H.H.H.H.H.",
"H.H.H.H.H.H.H.H.m.3.2 ) <X:X2X<X,XO.I /.<Xu.+ K H.H.H.H.H.H.H.H.",
"H.H.H.H.H.H.H.H.L , % ) <X<X<X2X<X(.^.XX,Xi.+ K H.H.H.H.H.H.H.H.",
"H.H.H.H.H.H.H.H.4.B > ) 1X:X=X*X*X-X<X<X<Xi.+ K H.H.H.H.H.H.H.H.",
"H.H.H.H.H.H.H.H.H.Z.n ^ d.k.h.f.f.h.z.l.j.@.1 >.H.H.H.H.H.H.H.H.",
"H.H.H.H.H.H.H.H.H.H.v.F : 0 f g g h j j 4 i t.B.H.H.H.H.H.H.H.H.",
"H.H.H.H.H.H.H.H.H.S.S ~ %.*.[ 7 9 9 7 8 l =.F.H.H.H.H.H.H.H.H.H.",
"H.H.H.H.H.H.H.H.J.N.r ' #X%Xa.] ] ] ! 6 J r.P.Y.H.H.H.H.H.H.H.H.",
"H.H.H.H.H.H.H.H.H.N.r ' @X%X;X].].].g.= H e.P.H.H.H.H.H.H.H.H.H.",
"H.H.H.H.H.H.H.H.D.D.,.{ k U &.>X<X<X).9.A N S.H.H.H.H.H.H.H.H.H.",
"H.H.H.H.H.H.H.H.H.Y.I.D .   P $.$.x.$X&XE r b.H.H.H.H.H.H.H.H.H.",
"H.H.H.H.H.H.H.H.H.H.T.G $ X . X O o.OX+XQ t N.H.H.H.H.H.H.H.H.H.",
"H.H.H.H.H.H.H.H.H.H.H.t.K < . * G W p a ..2.G.H.H.H.H.H.H.H.H.H.",
"H.H.H.H.H.H.H.H.T.H.Y.H.c.Z z M y.+.c x <.H.H.H.H.H.H.H.H.H.H.H.",
"H.H.H.H.H.H.H.H.T.Y.H.H.H.H.H.Y.H.H.H.H.H.I.H.H.H.H.H.H.H.H.H.H.",
"H.H.H.H.H.H.H.H.H.H.Y.Y.H.D.H.H.H.H.H.H.n.H.H.H.H.H.H.H.H.H.H.H.",
"H.H.H.H.H.H.H.H.H.I.H.H.K.H.H.H.H.H.H.H.I.H.H.D.H.H.H.H.H.H.H.H.",
"H.H.H.H.H.H.H.H.H.H.H.H.K.H.H.H.H.L.H.H.H.I.H.U.H.H.H.H.H.H.H.H."
};
