/* XPM */
static char *right1_resized[] = {
/* columns rows colors chars-per-pixel */
"32 32 199 2 ",
"   c #DDD37A",
".  c #DFD57C",
"X  c #5F5393",
"o  c #5F5395",
"O  c #615293",
"+  c #615295",
"@  c #6A5B94",
"#  c #6A5D95",
"$  c #6A5F99",
"%  c #7C6F8D",
"&  c #6E6095",
"*  c #6F6196",
"=  c #6B6098",
"-  c #756596",
";  c #7B6C93",
":  c #73669E",
">  c #746898",
",  c #776A98",
"<  c #72689C",
"1  c #796E99",
"2  c #7E6D99",
"3  c #776DAA",
"4  c #786CAA",
"5  c #7D73A7",
"6  c #827297",
"7  c #867597",
"8  c #877698",
"9  c #867C9F",
"0  c #877D9F",
"q  c #897A99",
"w  c #8E7B99",
"e  c #8F7C9A",
"r  c #8074A6",
"t  c #8378A0",
"y  c #867CA1",
"u  c #8B7CA7",
"i  c #8177AC",
"p  c #827AA9",
"a  c #8278AC",
"s  c #8379AD",
"d  c #827AAD",
"f  c #857DAC",
"g  c #8A8099",
"h  c #95819A",
"j  c #93849B",
"k  c #90839F",
"l  c #9A879B",
"z  c #9A879D",
"x  c #9B889B",
"c  c #9D8D9A",
"v  c #9F8D9B",
"b  c #9F8D9D",
"n  c #AB9F85",
"m  c #A38E9D",
"M  c #A6929D",
"N  c #A7939E",
"B  c #A8949D",
"V  c #AB969D",
"C  c #AE9A9C",
"Z  c #AF9B9D",
"A  c #AD9A9E",
"S  c #B09A9D",
"D  c #B09C9E",
"F  c #B29E9F",
"G  c #B5A09D",
"H  c #B6A19E",
"J  c #B7A29F",
"K  c #B8A39E",
"L  c #B9A49F",
"P  c #8F80A7",
"I  c #9086A1",
"U  c #998DA1",
"Y  c #9687A8",
"T  c #9E93A3",
"R  c #9A91A4",
"E  c #9991A6",
"W  c #9F97A6",
"Q  c #9992B1",
"!  c #9992B3",
"~  c #A094A2",
"^  c #A498A4",
"/  c #A998A0",
"(  c #A199A8",
")  c #A39BA8",
"_  c #A396B4",
"`  c #A9A4AA",
"'  c #B7A2A1",
"]  c #B8A3A0",
"[  c #BBA6A1",
"{  c #BEA7A1",
"}  c #B1A8A9",
"|  c #B6B1AD",
" . c #B7B2AE",
".. c #BAB3AD",
"X. c #ADA7B3",
"o. c #B3ACB4",
"O. c #B2A9BC",
"+. c #B9B5B6",
"@. c #D1BD98",
"#. c #C2ACA1",
"$. c #C6B0A2",
"%. c #C8B3A0",
"&. c #CDB3A2",
"*. c #CCB5A3",
"=. c #D5BDA3",
"-. c #D6BEA2",
";. c #C2BEB3",
":. c #D1BFB1",
">. c #E7B5AC",
",. c #E8B8AE",
"<. c #E9B7B0",
"1. c #DECA97",
"2. c #EAD592",
"3. c #E9D692",
"4. c #DFC7A3",
"5. c #D8C0A4",
"6. c #D8C3A6",
"7. c #DCC3A4",
"8. c #DBC4A4",
"9. c #DFC7A5",
"0. c #C7C4B3",
"q. c #C7C1B5",
"w. c #C9C3B3",
"e. c #CAC4B4",
"r. c #D2CEB5",
"t. c #D3CFB6",
"y. c #D8C0BE",
"u. c #D8C5BE",
"i. c #D8C5BF",
"p. c #D5D1B8",
"a. c #D7D3B8",
"s. c #D9D5B8",
"d. c #D9D5BA",
"f. c #D8D2BC",
"g. c #D9D3BD",
"h. c #DBD8B9",
"j. c #DFDCB9",
"k. c #E0C6A5",
"l. c #E0C8A4",
"z. c #E4CAA5",
"x. c #E6CAA5",
"c. c #E5CBA6",
"v. c #E4CAA7",
"b. c #E5CCA4",
"n. c #E7CEA5",
"m. c #E6CFA5",
"M. c #E7CEA6",
"N. c #EACFA4",
"B. c #E8CFA6",
"V. c #E8CFA7",
"C. c #EACEA6",
"Z. c #EACEA7",
"A. c #EBCFA7",
"S. c #E7D0A6",
"D. c #E8D2A0",
"F. c #E8D0A4",
"G. c #E9D1A5",
"H. c #E9D0A7",
"J. c #E9D0A8",
"K. c #EDCAB4",
"L. c #EECAB4",
"P. c #EFD1B5",
"I. c #ECD3B5",
"U. c #EEDAB7",
"Y. c #E1DEBB",
"T. c #EDDAB9",
"R. c #EFDDB9",
"E. c #E3E1BB",
"W. c #E8E6BD",
"Q. c #EBEABE",
"!. c #EEEDBF",
"~. c #EFEEBE",
"^. c #F0E1B8",
"/. c #F0E1BA",
"(. c #F3E7BF",
"). c #F1E8BD",
"_. c #F2EBBD",
"`. c #F0EFBF",
"'. c #F2F0BF",
"]. c #F4F2BF",
"[. c #B9AFC7",
"{. c #B9AFC8",
"}. c #BEB4CC",
"|. c #C6BDD0",
" X c #D9D1DC",
".X c #E2DEC5",
"XX c #E5E1C6",
"oX c #EBE8C9",
"OX c #F3E4C3",
"+X c #F1E7C3",
"@X c #F3F1C0",
"#X c #F3F3C1",
"$X c #F5F1C1",
"%X c #F4F2C1",
"&X c #F4F2C2",
"*X c #F5F3C2",
"=X c #F6F2C2",
"-X c #E7E1D3",
";X c #E8E2D4",
/* pixels */
"B.B.B.B.B.B.B.B.B.B.C.B.B.B.B.n.B.B.B.B.B.B.B.B.B.B.B.B.B.B.B.B.",
"B.B.B.B.B.B.B.B.B.B.B.B.B.F.B.B.F.H.B.B.B.V.C.B.B.B.B.B.B.B.B.B.",
"B.B.B.B.B.B.B.B.S.B.B.B.B.B.H.B.B.B.B.B.S.B.B.V.B.B.B.B.B.B.B.B.",
"B.B.B.B.B.B.B.B.J.B.B.B.B.B.B.B.B.B.B.n.B.H.B.B.B.B.B.B.B.B.B.B.",
"B.B.B.B.B.B.B.B.C.C.B.$.h h h m 8.Z.B.B.B.B.B.B.B.B.B.B.B.B.B.B.",
"B.B.B.B.B.B.B.B.B.n.*./ y 9 9 k ] -.V.S.B.B.B.B.B.B.B.B.B.B.B.B.",
"B.B.B.B.B.B.B.B.B.c.7 R !.!.!.s., B G.B.B.S.B.B.B.B.B.B.B.B.B.B.",
"B.B.B.B.B.B.B.B.%.e } :.K.L.R.h.> - v k.B.B.B.C.B.B.B.B.B.B.B.B.",
"B.B.B.B.F.B.B.B.K O e.T.>.>.P.E.W I U G =.B.C.C.B.B.B.B.B.B.B.B.",
"H.H.B.B.B.B.B.B.L O 0.U.<.,.I.$X%X%Xr.# D F.B.B.B.B.B.B.B.B.B.B.",
"n.B.B.B.B.B.B.B.L O 0._./.^.).*X%X%Xr.# C B.B.B.B.B.B.B.B.B.B.B.",
"B.B.B.B.B.B.B.B.K O 0.].%X].#X%X%X%Xr.# S B.B.S.B.B.B.B.B.B.B.B.",
"B.B.B.F.B.H.B.4.Z X 0.].@X%X%X%X@X%Xr.# N 9.B.B.B.B.B.B.B.B.B.B.",
"B.B.B.B.n.B.B.c * O w.%X=X%X%X%X%X&Xr.# & l b.B.B.B.B.B.B.B.B.B.",
"F.B.B.N.B.B.B.J 8 O 0.%X%X%X%XW. .t.Y.` 1 6 x.B.B.B.B.B.B.B.B.B.",
"B.B.C.B.B.B.B.6.V O 0.#X%X%X%Xj.0 | #X%XE 6 z.F.B.B.B.B.B.B.B.B.",
"B.B.B.B.B.B.V.x @ O w.&X%X%X#X~.j.W.$X%XE 6 z.B.B.B.B.B.B.B.B.B.",
"B.B.B.n.B.B.B.{ w O 0.%X@X(.OX+X'.%X%X%XE 6 v.B.B.B.B.B.B.B.B.B.",
"B.B.B.B.F.B.B.B.#.2 ..p.g.u.y.i.f.d.a.t.T z b.B.B.B.B.B.B.B.B.B.",
"B.B.B.B.B.B.B.B.z.5.q < d a i i s d 5 = A 9.B.B.B.B.B.B.B.B.B.B.",
"B.B.B.B.B.B.B.n.&.j _ O.+.f 3 3 3 4 t n @.B.C.B.B.B.B.B.B.B.B.B.",
"G.B.B.H.B.B.B.B.K + {.;XQ.X.Q ! Q p g . 2.V.B.B.B.B.B.B.B.B.B.B.",
"B.B.B.B.B.V.B.C.K o [.-X%X`.~.~.`.( %   3.B.B.F.B.B.B.B.B.B.B.B.",
"B.B.B.B.B.C.B.B.5.H Y o.%X@X%X%X].) ; 1.D.B.H.B.B.B.B.B.B.B.B.B.",
"B.B.B.B.B.B.B.B.B.c.M ~ ;..XoXXXq.^ b 9.n.B.B.B.B.B.B.B.B.B.B.B.",
"B.B.B.B.B.B.B.B.V.n.B.F $ }. X|.: B C.M.V.B.B.B.B.B.B.B.B.B.B.B.",
"B.B.B.B.B.B.B.B.B.B.B.5.[ P r u ' -.C.B.A.B.B.B.B.B.B.B.B.B.B.B.",
"B.B.B.B.B.B.B.B.B.B.C.V.l.N h m 7.C.B.C.B.m.B.H.B.B.B.B.B.B.B.B.",
"B.B.B.B.B.B.B.B.B.B.B.B.B.B.B.B.B.B.B.F.B.B.G.B.B.B.B.B.B.B.B.B.",
"B.B.B.B.B.B.B.B.B.B.S.B.B.B.H.B.V.B.B.B.B.C.B.S.B.B.B.B.B.B.B.B.",
"B.B.B.B.B.B.B.B.C.B.C.S.B.B.B.B.B.B.B.B.B.B.B.B.B.B.B.B.B.B.B.B.",
"B.B.B.B.B.B.B.B.V.B.B.H.M.n.B.B.H.B.B.B.B.B.B.B.B.B.B.B.B.B.B.B."
};
