/* XPM */
static char *right4_resized[] = {
/* columns rows colors chars-per-pixel */
"32 32 196 2 ",
"   c #5B4E93",
".  c #5B4E94",
"X  c #5C4F94",
"o  c #5F5091",
"O  c #5F5093",
"+  c #615293",
"@  c #625492",
"#  c #655593",
"$  c #675593",
"%  c #615295",
"&  c #605496",
"*  c #665893",
"=  c #665895",
"-  c #695C94",
";  c #6A5F97",
":  c #7A6C8D",
">  c #6E6095",
",  c #6D6096",
"<  c #69609F",
"1  c #726195",
"2  c #706295",
"3  c #7E6D97",
"4  c #7D6E97",
"5  c #7A6898",
"6  c #7F6E98",
"7  c #6D63A2",
"8  c #7368A0",
"9  c #756BA8",
"0  c #7D73A7",
"q  c #817196",
"w  c #807097",
"e  c #837197",
"r  c #827297",
"t  c #867597",
"y  c #877698",
"u  c #867C9F",
"i  c #8A7999",
"p  c #897A99",
"a  c #8072A5",
"s  c #8074A6",
"d  c #857BA0",
"f  c #867CA1",
"g  c #8177AC",
"h  c #8278AC",
"j  c #827AAD",
"k  c #998E94",
"l  c #95819A",
"z  c #96829B",
"x  c #93879F",
"c  c #98859B",
"v  c #9C869B",
"b  c #9C899C",
"n  c #A59890",
"m  c #A4909B",
"M  c #A6929D",
"N  c #A7939E",
"B  c #AC999D",
"V  c #AF9B9D",
"C  c #B19D9E",
"Z  c #B0A683",
"A  c #B8AE8A",
"S  c #B8A39E",
"D  c #BEAA9F",
"F  c #8F86A1",
"G  c #9285A1",
"H  c #9086A1",
"J  c #9085A3",
"K  c #9187A2",
"L  c #9D8EA3",
"P  c #9184AF",
"I  c #968DA8",
"U  c #9E93A3",
"Y  c #9890A5",
"T  c #9992A4",
"R  c #9991A6",
"E  c #9A91A6",
"W  c #9A92A7",
"Q  c #9991A8",
"!  c #9990AF",
"~  c #8B81B3",
"^  c #988DB7",
"/  c #A094A2",
"(  c #A595A0",
")  c #A796A0",
"_  c #A694A2",
"`  c #A39BA8",
"'  c #A59CAD",
"]  c #A094B8",
"[  c #A9A2AA",
"{  c #ABA3AE",
"}  c #AEA8AA",
"|  c #AFA9AB",
" . c #BAA7A0",
".. c #BBA7A0",
"X. c #BAB3AD",
"o. c #BDB6AE",
"O. c #BDB9B0",
"+. c #BEBABB",
"@. c #C0B08C",
"#. c #C1ABA0",
"$. c #C3ABA1",
"%. c #C3AAA3",
"&. c #C3ADA0",
"*. c #C2ACA1",
"=. c #C5AFA1",
"-. c #C6B0A2",
";. c #C9B4A3",
":. c #CCB5A3",
">. c #CEB4A3",
",. c #CDB7A2",
"<. c #D0BAA3",
"1. c #D7BFA3",
"2. c #D8BEA3",
"3. c #C3BBB0",
"4. c #C4BEB2",
"5. c #C5BFB3",
"6. c #C1BEB9",
"7. c #D7BFBD",
"8. c #E7B5AC",
"9. c #E8B8AE",
"0. c #EABFAF",
"q. c #EADC83",
"w. c #EADC84",
"e. c #D8C0A4",
"r. c #DCC3A4",
"t. c #C7C4B1",
"y. c #C7C4B3",
"u. c #CEC9B5",
"i. c #D0CBB5",
"p. c #D2CEB5",
"a. c #D3CFB6",
"s. c #D7CBBD",
"d. c #D8CABD",
"f. c #D7D3B8",
"g. c #D6D1BB",
"h. c #D5D3BE",
"j. c #D9D5BA",
"k. c #E4CBA3",
"l. c #E0C8A4",
"z. c #E3CBA5",
"x. c #E0C8A6",
"c. c #E4CAA5",
"v. c #E6CAA5",
"b. c #E5CBA6",
"n. c #E7CBA6",
"m. c #E5CCA4",
"M. c #E4CDA4",
"N. c #E5CEA5",
"B. c #E7CEA5",
"V. c #E6CFA5",
"C. c #E7CEA6",
"Z. c #E9CDA5",
"A. c #E8CFA6",
"S. c #E8CFA7",
"D. c #EACEA6",
"F. c #E7D0A4",
"G. c #E7D0A6",
"H. c #E7D0A7",
"J. c #E8D0A4",
"K. c #E9D0A7",
"L. c #E9D0A8",
"P. c #E2C6B1",
"I. c #EAC0B0",
"U. c #E9C3B0",
"Y. c #EAC4B1",
"T. c #ECC9B3",
"R. c #EED0B6",
"E. c #E0DDBA",
"W. c #E3E0BD",
"Q. c #E7E5BC",
"!. c #E6E4BD",
"~. c #EFE1BA",
"^. c #E8E6BD",
"/. c #ECEBBD",
"(. c #EEEDBF",
"). c #F0E2BB",
"_. c #F1E3BC",
"`. c #F1E8BD",
"'. c #F3ECBE",
"]. c #F1EFBE",
"[. c #F3EFBF",
"{. c #F0F0BE",
"}. c #F4F2BF",
"|. c #B6ACC5",
" X c #D8C0C0",
".X c #D9D1DC",
"XX c #E0DBD8",
"oX c #EBE8C9",
"OX c #F3E4C3",
"+X c #F3ECC2",
"@X c #F0EDC4",
"#X c #F3F1C0",
"$X c #F5F1C1",
"%X c #F4F2C1",
"&X c #F4F2C2",
"*X c #F5F3C2",
/* pixels */
"A.A.A.A.A.A.A.A.A.A.A.A.A.A.A.J.A.A.A.A.A.A.A.A.A.A.A.A.A.A.A.A.",
"A.A.A.A.A.A.A.A.A.A.S.A.G.A.A.A.B.A.B.S.A.A.A.H.A.A.A.A.A.A.A.A.",
"A.A.A.A.A.A.A.A.A.A.G.B.G.A.A.A.A.A.A.J.A.A.A.A.A.A.A.A.A.A.A.A.",
"A.A.A.A.A.A.A.A.A.A.A.D.A.S.A.A.A.A.A.B.A.A.A.A.A.A.A.A.A.A.A.A.",
"A.A.A.A.A.A.A.A.A.J.A.A.l.N z l l #.S.S.A.A.G.A.A.A.A.A.A.A.A.A.",
"A.A.A.A.A.A.A.A.A.A.A.2...x d u f ( ;.M.V.A.J.A.A.A.A.A.A.A.A.A.",
"A.A.A.A.A.A.A.A.A.A.A.C , i.(.(.(.` 4 r.K.A.A.A.A.A.A.A.A.A.A.A.",
"A.A.A.A.A.A.A.A.A.b.M / 3.P.T.R.'.` * y &.A.A.A.A.A.A.A.A.A.A.A.",
"A.A.A.A.A.A.A.A.D.c.q T '.U.8.0.`.O.H J ) =.C.A.A.A.A.A.A.A.A.A.",
"A.A.A.A.A.A.A.A.A.c.r Y '.Y.9.I.`.*X%X*XR r c.A.A.A.A.A.A.A.A.A.",
"A.A.A.A.A.A.A.A.A.n.e R [._.~.).].%X%X%XQ r c.A.A.A.A.A.A.A.A.A.",
"A.A.A.A.A.A.A.A.A.k.r R %X%X%X%X*X%X%X%XR r c.K.A.A.A.A.A.A.A.A.",
"A.A.A.A.A.A.A.A.z.1.w Y $X&X%X%X*X%X%X%XQ w 2.c.A.A.A.A.A.A.A.A.",
"A.A.A.A.A.A.A.A.%.5 $ R }.%X%X%X%X%X%X%XR # 5 *.A.A.A.A.A.A.A.A.",
"A.A.A.A.A.A.A.A.,.b > E %X%X%X%X%Xu.o./.4.G O S A.A.A.A.A.A.A.A.",
"A.A.A.A.A.A.A.A.l.,.3 R %X#X*X%X$X} F Q.%Xt.+ S A.A.A.A.A.A.A.A.",
"A.A.A.A.A.A.A.A.D 2 @ Q %X%X%X%X%X!.E.{.%Xy.% S A.A.A.A.A.A.A.A.",
"A.A.A.A.A.A.A.A.<.m 1 W %X%X+XOXOX+X%X%X%Xy.+ S A.A.A.A.A.A.A.A.",
"A.A.A.A.A.A.A.A.A.m.v U a.f.s. X7.d.j.j.g.X.6 *.A.A.A.A.A.A.A.A.",
"A.A.A.A.A.A.A.A.G.A.x.B ; 0 h g g h j j 8 p e.c.A.A.A.A.A.A.A.A.",
"A.A.A.A.A.A.A.A.A.A.A.V = { 6.+.|.~ < 9 k @.V.A.A.A.A.A.A.A.A.A.",
"A.A.A.A.A.A.A.A.A.A.A.V - p.%X@XXX^ & 7 A w.F.G.A.A.A.A.A.A.A.A.",
"A.A.A.A.A.A.A.A.A.A.D.V - p.}.@XXX^   X Z q.F.A.A.A.A.A.A.A.A.A.",
"A.A.A.A.A.A.A.A.A.b.M / 5.^.%XW.! ' [ = : n N.A.A.A.A.A.A.A.A.A.",
"A.A.A.A.A.A.A.A.L.c.r I oXoXh.| ; K [ =   r v.B.A.A.A.A.A.A.A.A.",
"A.A.A.A.A.A.A.A.A.b.t P .X.X] + + O   . o t k.G.A.A.A.A.A.A.A.A.",
"A.A.A.A.A.A.A.A.A.C.:._ a s L $.#.i .   c >.S.A.A.A.A.A.A.A.A.A.",
"A.A.A.A.A.A.A.A.B.A.A.-.l l ..A.A. .l l -.A.A.A.A.A.A.A.A.A.A.A.",
"A.A.A.A.A.A.A.A.A.A.A.A.J.D.D.A.A.J.D.A.A.G.G.A.A.A.A.A.A.A.A.A.",
"A.A.A.A.A.A.A.A.A.A.D.A.A.A.A.A.A.A.A.B.A.S.K.A.A.A.A.A.A.A.A.A.",
"A.A.A.A.A.A.A.A.A.A.A.A.A.A.A.A.Z.A.S.A.G.A.A.A.A.A.A.A.A.A.A.A.",
"A.A.A.A.A.A.A.A.Z.J.A.A.A.A.A.A.A.A.A.A.A.A.A.A.A.A.A.A.A.A.A.A."
};
