/* XPM */
static char *right2_resized[] = {
/* columns rows colors chars-per-pixel */
"32 32 185 2 ",
"   c #5F5393",
".  c #5B5094",
"X  c #615391",
"o  c #605192",
"O  c #615293",
"+  c #625492",
"@  c #655794",
"#  c #665896",
"$  c #695A93",
"%  c #6A5D95",
"&  c #6A5C97",
"*  c #6E6197",
"=  c #6F649E",
"-  c #726195",
";  c #706295",
":  c #726495",
">  c #746495",
",  c #7B6A96",
"<  c #7E6D97",
"1  c #776A98",
"2  c #796E98",
"3  c #7B6EA4",
"4  c #776DAA",
"5  c #766EAA",
"6  c #776DAC",
"7  c #786CAA",
"8  c #837197",
"9  c #817397",
"0  c #827297",
"q  c #867597",
"w  c #867C9F",
"e  c #8E7B99",
"r  c #8074A6",
"t  c #877DA0",
"y  c #847CAD",
"u  c #9A8894",
"i  c #90809B",
"p  c #948099",
"a  c #95819A",
"s  c #90839F",
"d  c #A38E9D",
"f  c #A18C9F",
"g  c #A48F9E",
"h  c #A6929D",
"j  c #A7939E",
"k  c #AD989D",
"l  c #AF999C",
"z  c #AF9B9D",
"x  c #B19D9E",
"c  c #AEA28A",
"v  c #B4AA87",
"b  c #B3AA8D",
"n  c #B8A39E",
"m  c #B8A49D",
"M  c #B9A49F",
"N  c #BEAA9F",
"B  c #8B83AC",
"V  c #8F84AF",
"C  c #9789A0",
"Z  c #978EA3",
"A  c #9387AF",
"S  c #998BAC",
"D  c #9890A5",
"F  c #9A91A4",
"G  c #9991A6",
"H  c #9A92A7",
"J  c #9991A8",
"K  c #998DB5",
"L  c #A195A3",
"P  c #A696A3",
"I  c #A291A4",
"U  c #A896A4",
"Y  c #A29AA7",
"T  c #A599A5",
"R  c #A998A0",
"E  c #A49CA9",
"W  c #B19FB7",
"Q  c #A8A2AE",
"!  c #B8A3A0",
"~  c #BBA7A0",
"^  c #B1A4AB",
"/  c #B1A8AB",
"(  c #B4ACAA",
")  c #B0AAAE",
"_  c #B4AFAC",
"`  c #BEBAAF",
"'  c #ADA7B1",
"]  c #AEA9B0",
"[  c #B1A6B6",
"{  c #B1ACB3",
"}  c #B2ACB6",
"|  c #BDBAB1",
" . c #BEBAB1",
".. c #C0A9A1",
"X. c #C1ABA0",
"o. c #C2AAA0",
"O. c #C1ADA2",
"+. c #C6B1A0",
"@. c #C6B0A2",
"#. c #C8B3A2",
"$. c #CCB5A3",
"%. c #CDB7A2",
"&. c #CAB5A4",
"*. c #D0BAA3",
"=. c #D5BDA3",
"-. c #D2BCA4",
";. c #C1BCB8",
":. c #C0BDB8",
">. c #D1BFB1",
",. c #E7B5AC",
"<. c #E8B8AE",
"1. c #E0D287",
"2. c #E9DB83",
"3. c #EAD88E",
"4. c #D8C0A4",
"5. c #DCC3A4",
"6. c #DEC3A5",
"7. c #DBC4A5",
"8. c #DFC7A5",
"9. c #C7C1B3",
"0. c #C7C4B3",
"q. c #C8C2B4",
"w. c #D2CEB5",
"e. c #D2CDB7",
"r. c #D3CFB6",
"t. c #D4CFBC",
"y. c #D9D5B8",
"u. c #DAD9BB",
"i. c #E0C8A4",
"p. c #E4CAA5",
"a. c #E5CBA6",
"s. c #E5CCA4",
"d. c #E4CDA4",
"f. c #E6CDA5",
"g. c #E7CEA5",
"h. c #E7CEA6",
"j. c #E9CDA5",
"k. c #E8CFA6",
"l. c #E8CFA7",
"z. c #EACEA6",
"x. c #EACEA7",
"c. c #E7D0A4",
"v. c #E7D0A6",
"b. c #E8D0A4",
"n. c #E9D0A7",
"m. c #EDCBB2",
"M. c #EECAB4",
"N. c #EDD2B5",
"B. c #ECD3B5",
"V. c #EED7B7",
"C. c #EEDAB7",
"Z. c #E0DDBA",
"A. c #EFDDB9",
"S. c #E8E6BD",
"D. c #E9E7BE",
"F. c #EBEABE",
"G. c #EEEDBF",
"H. c #F0E1BA",
"J. c #F2E0BA",
"K. c #F0E9BD",
"L. c #F2F0BF",
"P. c #F4F2BF",
"I. c #BEB5C8",
"U. c #D4CCD7",
"Y. c #D9D1DC",
"T. c #DED8DA",
"R. c #F2DCC4",
"E. c #E3E0C1",
"W. c #E6E3C2",
"Q. c #EEEDC1",
"!. c #EFEEC0",
"~. c #EFEDC7",
"^. c #ECE7C9",
"/. c #F5E7C2",
"(. c #F4E8C2",
"). c #F2EEC1",
"_. c #F3EFC2",
"`. c #F3F1C0",
"'. c #F3F3C1",
"]. c #F4F0C0",
"[. c #F5F1C1",
"{. c #F5F3C0",
"}. c #F4F2C1",
"|. c #F4F2C2",
" X c #F5F3C2",
/* pixels */
"k.k.k.k.k.k.k.k.k.k.z.k.k.k.k.k.k.v.k.k.k.k.k.k.k.k.k.k.k.k.k.k.",
"k.k.k.k.k.k.k.k.k.k.k.k.k.k.k.k.k.k.k.k.k.k.b.k.k.k.k.k.k.k.k.k.",
"k.k.k.k.k.k.k.k.v.k.k.k.k.k.k.g.k.k.b.g.k.k.k.k.k.k.k.k.k.k.k.k.",
"k.k.k.k.k.k.k.k.k.k.n.k.k.k.k.k.k.g.v.k.k.l.k.k.k.k.k.k.k.k.k.k.",
"k.k.k.k.k.k.k.k.z.z.k.@.a p a d 5.k.k.l.k.k.k.k.k.k.k.k.k.k.k.k.",
"k.k.k.k.k.k.k.k.k.h.$.R w w t s ! X.o.X.4.k.k.k.k.k.k.k.k.k.k.k.",
"k.k.k.k.k.k.k.k.b.a.q F Q.G.!.y.1 O O O x b.k.k.k.k.k.k.k.k.k.k.",
"k.k.k.k.k.k.k.k.#.e / >.m.M.A.F.q.`  .| L h a.b.k.k.k.k.k.k.k.k.",
"k.k.k.k.k.k.k.k.n   0.C.,.,.N.}.}.}.}.|.G 8 p.k.k.k.k.k.k.k.k.k.",
"k.k.k.k.k.k.k.k.M @ 9.V.<.<.B.`.|.{.}.}.J 0 p.x.k.k.k.k.k.k.k.k.",
"k.k.k.k.k.k.k.k.7...C ^ H.J.K.}.}.}.}.}.H 9 p.k.k.k.k.k.k.k.k.k.",
"k.k.k.k.k.k.k.k.=.k : D }.}.'. X}.|.}.}.D > k =.k.k.k.k.k.k.k.k.",
"k.k.k.k.k.k.k.k.~ $ o G }.}.[.}. XF.S.].Y # . m k.k.k.k.k.k.k.k.",
"k.k.k.k.k.k.k.k.8.+., G }.}. X}. X_ Z D.Z.) O n k.k.k.k.k.k.k.k.",
"k.k.k.k.k.k.k.k.*.g - G }.}.}.}.}.0._ F.[.0.O n k.k.k.k.k.k.k.k.",
"k.k.k.k.k.k.k.k.N ; + G }.}.L._.).L.}.`.}.0.X n k.k.k.k.k.k.k.k.",
"k.k.k.k.k.k.k.k.i.%.< G P.}./.R.R.(.}.}.}.0.O n k.k.k.k.k.k.k.k.",
"k.k.k.k.k.k.k.k.k.f.M P E ] [ W W [ { { Q T j *.k.k.k.k.k.k.k.k.",
"k.k.k.k.k.k.k.k.z.h.-.U 3 B y 4 6 4 4 5 2 u s.k.k.k.k.k.k.k.k.k.",
"k.k.k.k.k.k.k.k.k.p.e A U.E.} 7 4 4 6 4 b 1.n.k.k.k.k.k.k.k.k.k.",
"k.k.k.k.k.k.k.k.k.p.0 V T.~.u.;.:.:.' = v 2.c.k.k.k.k.k.k.k.k.k.",
"k.k.k.k.k.k.k.k.k.a.f S I.W.|.}.}.}.w.% c 3.k.k.k.k.k.k.k.k.k.k.",
"k.k.k.k.k.k.k.k.k.l.a.l * r.}.[.`.}.w.% z z.v.k.k.k.k.k.k.k.k.k.",
"k.k.k.k.k.k.k.k.k.v.k.z % w.}.}.}.}.e.& z k.k.k.k.k.k.k.k.k.k.k.",
"k.k.k.k.k.k.k.k.k.k.z.O.i ( t.^.^.t.( i O.z.k.k.k.k.k.k.k.k.k.k.",
"k.k.k.k.k.k.k.k.g.k.k.k.6.< K Y.Y.K < 6.k.k.k.g.k.k.k.k.k.k.k.k.",
"k.k.k.k.k.k.k.k.k.k.k.v.d.&.I r r I &.d.v.k.k.k.k.k.k.k.k.k.k.k.",
"k.k.k.k.k.k.k.k.k.k.k.z.k.k.X.a a X.k.k.z.k.k.k.k.k.k.k.k.k.k.k.",
"k.k.k.k.k.k.k.k.g.k.k.l.b.k.k.k.k.k.k.b.l.k.k.g.k.k.k.k.k.k.k.k.",
"k.k.k.k.k.k.k.k.k.k.k.k.k.k.k.k.k.k.k.k.k.k.k.k.k.k.k.k.k.k.k.k.",
"k.k.k.k.k.k.k.k.v.k.k.k.k.k.k.k.k.k.k.k.k.k.k.v.k.k.k.k.k.k.k.k.",
"k.k.k.k.k.k.k.k.k.k.j.k.k.g.k.v.v.k.g.k.k.j.k.k.k.k.k.k.k.k.k.k."
};
