/* XPM */
static char *up1_resized[] = {
/* columns rows colors chars-per-pixel */
"32 32 130 2 ",
"   c #615293",
".  c #615593",
"X  c #665893",
"o  c #6A5B94",
"O  c #6A5D95",
"+  c #675B9B",
"@  c #736394",
"#  c #736296",
"$  c #766695",
"%  c #766697",
"&  c #73699E",
"*  c #7E6D99",
"=  c #7D729C",
"-  c #7D729D",
";  c #7F749E",
":  c #6E64A3",
">  c #776EA5",
",  c #796FA1",
"<  c #766CA9",
"1  c #776DAA",
"2  c #7F73A5",
"3  c #867597",
"4  c #8B7B96",
"5  c #8A7A97",
"6  c #857498",
"7  c #877698",
"8  c #867C9F",
"9  c #8A7999",
"0  c #8A7B98",
"q  c #8B7B98",
"w  c #8A7F9D",
"e  c #907D9B",
"r  c #8074A6",
"t  c #877EAB",
"y  c #827AAD",
"u  c #817AAE",
"i  c #887CAC",
"p  c #948099",
"a  c #95819A",
"s  c #9B8A9A",
"d  c #9F8D9B",
"f  c #9E8E9B",
"g  c #998E9F",
"h  c #A8949D",
"j  c #AE9B9F",
"k  c #B19D9E",
"l  c #B4A09F",
"z  c #8F85A0",
"x  c #8E83A5",
"c  c #9086A1",
"v  c #9085A3",
"b  c #9187A2",
"n  c #9D8EA3",
"m  c #9C8CA7",
"M  c #9184AF",
"N  c #968DA8",
"B  c #958EAF",
"V  c #9C94AC",
"C  c #A694A2",
"Z  c #A997A5",
"A  c #A098A7",
"S  c #A096AF",
"D  c #A094B8",
"F  c #A89FBE",
"G  c #B5A1A0",
"H  c #BBA7A0",
"J  c #B7B2AE",
"K  c #BEBAAF",
"L  c #B1AAB2",
"P  c #C1ABA0",
"I  c #C4B1A0",
"U  c #C7B0A2",
"Y  c #C9B2A2",
"T  c #C8B3A2",
"R  c #C9B4A3",
"E  c #CBB4A2",
"W  c #CCB5A3",
"Q  c #CDB7A2",
"!  c #C9B2A4",
"~  c #D3BBA3",
"^  c #D6BEA2",
"/  c #D4BCA4",
"(  c #DCC3A4",
")  c #DFC7A5",
"_  c #C9C6B3",
"`  c #D2CEB5",
"'  c #D0CABC",
"]  c #D8D4B7",
"[  c #D5D1B8",
"{  c #D7D2BE",
"}  c #D9D5BA",
"|  c #DAD6BB",
" . c #DFDFBB",
".. c #E7CFA3",
"X. c #E1C9A5",
"o. c #E4CAA5",
"O. c #E6CDA5",
"+. c #E5CEA5",
"@. c #E7CEA5",
"#. c #E6CFA5",
"$. c #E8CFA6",
"%. c #E8CFA7",
"&. c #EACEA6",
"*. c #E7D0A6",
"=. c #E8D0A4",
"-. c #E9D0A7",
";. c #E1DFB9",
":. c #E6E4BE",
">. c #E9E7BE",
",. c #EFECBF",
"<. c #EEEDBF",
"1. c #F0EFBF",
"2. c #F4F2BF",
"3. c #D9D1DC",
"4. c #DAD2DD",
"5. c #DFD5DD",
"6. c #DDD6DD",
"7. c #E1DCD6",
"8. c #EFEEC0",
"9. c #EBE8C7",
"0. c #EDEAC7",
"q. c #EEECC6",
"w. c #EBE8C9",
"e. c #F3F1C0",
"r. c #F3F1C1",
"t. c #F5F1C1",
"y. c #F4F2C1",
"u. c #F4F2C2",
"i. c #F5F3C2",
"p. c #F1F0C4",
/* pixels */
"#.$.$.$.$.$.$.*.$.$.-.$.&.$.=.$.$.=.$.&.$.-.$.$.*.$.$.$.$.$.$.#.",
"$.=.$.$.$.$.$.&.$.$.-.&.$.=.-.=.=.-.=.$.&.-.$.$.&.$.$.$.$.$.=.$.",
"=.$.$.=.$.$.$.*.$.$.$.%.$.$.$.$.$.$.$.$.%.$.$.$.*.$.$.$.=.$.$.=.",
"$.$.$.-.=.$.$.*.$.$.$.$.$.=.$.&.&.$.=.$.$.$.$.$.*.$.$.=.-.$.$.$.",
"-.$.$.-.$.$.$.-.E a a a s ^ $.&.&.$.^ s a a a E -.$.$.$.-.$.$.-.",
"$.=.$...$.$.$.Q j 8 8 8 w G / $.$./ G w 8 8 8 j Q $.$.$...$.=.$.",
"$.$.$.$.$.@.$.e b 8.<.,.;.; d $.$.d ; ;.,.<.8.b e $.@.$.$.$.$.$.",
"$.$.=.$.$.$.$.0 c y.y.y.:.- @ q q @ - :.y.y.y.c 0 $.$.$.$.=.$.$.",
"*.$.$.$.%.$.%.q c 2.y.y.>.S i i i i S >.y.y.2.c q %.$.%.$.$.$.*.",
"&.$.$.%.$.$.-.q v y.u.y.p.7.6.6.6.6.7.p.y.u.y.v q -.$.$.%.$.$.&.",
"$.-.$.$.$.&.$.4 c y.y.y.r.q.0.0.0.0.q.r.y.y.y.c q $.&.$.$.$.-.$.",
"$.$.-.$.$.$.$.q c y.y.y.y.y.e.y.y.e.y.y.y.y.y.c q $.$.$.$.-.$.=.",
"$.-.$.$.$.+.( 7 c y.y.y.i.y.y.y.y.y.y.i.y.y.y.c 7 ( +.$.$.$.-.$.",
"$.$.$.&.&.R * X c t.y.y.y.y.y.e.e.y.y.y.y.y.t.c X * R &.&.$.$.$.",
"%.$.$.$.$./ d @ c y.y.y.y.y.y.y.y.y.y.y.y.y.y.c # d / $.$.$.$.$.",
"$.$.$.$.&.X.~ 6 c y.y.y.y.y.y.y.y.y.y.y.y.y.y.c 6 ~ X.&.$.$.$.$.",
"$.$.$.&.$.U $ . c i.y.y.y.y.y.y.y.y.y.y.y.y.i.c . $ U $.&.$.$.$.",
"$.=.$.$.&.^ h $ z y.y.t.y.y.y.y.y.y.y.y.t.y.y.z % h ^ &.$.$.=.$.",
"-.&.$.$.$.$.=.f g ` ` [ } | } } } } | } [ ` ` g f =.$.$.$.$.&.-.",
"$.$.$.$.$.$.$.) l O O & y u y y y y u y & O O l ) $.$.$.$.$.$.$.",
"$.=.=.$.@.$.%.k m F L V 1 < : + + : < 1 V L F m k %.=.@.$.=.=.$.",
"$.%.$.$.$.$.$.5 i 6.0.' B > , 8 8 , > B ' 0.6.i 5 $.$.$.$.$.%.=.",
"$.$.$.$.&.$.$.5 i 5.0.1. .= A <.<.A =  .1.0.5.i 5 $.$.&.$.$.$.$.",
"$.$.$.$.@.$.$.Y Z t x J <._ ] y.y.] _ <.J x t Z ! $.$.@.$.$.$.$.",
"$.$.$.$.$.$.$.$.T 9 o N 9.w.{ K K { w.9.N o 9 T $.$.$.$.$.$.$.$.",
"$.$.$.$.$.$.$.$.-.o.3 M 4.3.D     D 3.3.M 3 o.-.$.$.$.$.$.$.$.$.",
"$.$.$.$.$.$.$.$.*.O.W C 2 r n P P n r 2 C W O.*.$.$.$.$.$.$.$.$.",
"$.$.$.$.$.$.$.$.$.$.&.I a a H &.&.H a p I &.$.$.$.$.$.$.$.$.$.$.",
"$.$.$.$.$.$.$.$.$.@.=.$.$.$.$.$.$.$.$.$.$.=.@.$.$.$.$.$.$.$.$.$.",
"$.$.$.$.$.$.$.$.$.$.$.$.$.$.$.&.&.$.$.$.$.$.$.$.$.$.$.$.$.$.$.$.",
"$.$.$.$.$.$.$.$.$.$.$.%.=.$.=.$.$.=.$.=.%.$.$.$.$.$.$.$.$.$.$.$.",
"$.$.$.$.$.$.$.$.$.$.$.$.=.&.$.$.$.$.&.=.$.$.$.$.$.$.$.$.$.$.$.$."
};
