/* XPM */
static char *up2_resized[] = {
/* columns rows colors chars-per-pixel */
"32 32 148 2 ",
"   c #5B4E93",
".  c #605192",
"X  c #615293",
"o  c #625293",
"O  c #635593",
"+  c #655593",
"@  c #605194",
"#  c #615295",
"$  c #655594",
"%  c #655794",
"&  c #6D5F94",
"*  c #675B9B",
"=  c #675B9D",
"-  c #746795",
";  c #766695",
":  c #796895",
">  c #7A6996",
",  c #756999",
"<  c #776DAA",
"1  c #776DAC",
"2  c #786EAB",
"3  c #817196",
"4  c #807097",
"5  c #827297",
"6  c #867597",
"7  c #857399",
"8  c #857498",
"9  c #80759D",
"0  c #847D9F",
"q  c #867C9F",
"w  c #8173A6",
"e  c #8074A6",
"r  c #867CA1",
"t  c #948099",
"y  c #95819A",
"u  c #97809A",
"i  c #95839B",
"p  c #9D8B9B",
"a  c #998C9E",
"s  c #9E909F",
"d  c #A8949D",
"f  c #AB969D",
"g  c #B19D9E",
"h  c #B6A19E",
"j  c #B7A29F",
"k  c #B8A39E",
"l  c #BAA29E",
"z  c #8F86A3",
"x  c #9086A1",
"c  c #9D8EA3",
"v  c #9687A8",
"b  c #9184AF",
"n  c #968DA8",
"m  c #988FAC",
"M  c #A595A0",
"N  c #A694A2",
"B  c #A39BA8",
"V  c #A59AA8",
"C  c #A29CA8",
"Z  c #AA9FAD",
"A  c #A396B4",
"S  c #A094B8",
"D  c #A9A2AA",
"F  c #ABA5A9",
"G  c #BBA7A0",
"H  c #BDA5A1",
"J  c #B6AEAB",
"K  c #B2ACAC",
"L  c #BFB9AD",
"P  c #BFB8AE",
"I  c #BEBAAF",
"U  c #B0ABB2",
"Y  c #B1ACB3",
"T  c #B3ACB4",
"R  c #B2A9BC",
"E  c #B4ABBE",
"W  c #BDB9B0",
"Q  c #BDB8B2",
"!  c #C2AC9F",
"~  c #C1ABA0",
"^  c #C2AAA0",
"/  c #C2ACA1",
"(  c #C3ADA2",
")  c #C4AEA1",
"_  c #C6B0A2",
"`  c #C7B0A2",
"'  c #CAB5A2",
"]  c #CCB5A3",
"[  c #CDB6A4",
"{  c #D3BBA3",
"}  c #D6BFA0",
"|  c #D6BEA2",
" . c #D7BFA3",
".. c #D8BEA3",
"X. c #C1BCB8",
"o. c #C0BDB8",
"O. c #DDC5A3",
"+. c #D8C0A4",
"@. c #C9C6B3",
"#. c #D2CEB5",
"$. c #D7D3B6",
"%. c #DEDBBA",
"&. c #E0C6A5",
"*. c #E7CFA3",
"=. c #E1C9A5",
"-. c #E1C9A7",
";. c #E4CAA5",
":. c #E7CEA5",
">. c #E7CEA6",
",. c #E8CFA6",
"<. c #E8CFA7",
"1. c #EACEA6",
"2. c #E7D0A4",
"3. c #E7D0A6",
"4. c #E8D0A4",
"5. c #E9D0A7",
"6. c #E5E3BC",
"7. c #EEEDBD",
"8. c #EEEDBF",
"9. c #EFEEBE",
"0. c #F4F2BF",
"q. c #F5F2BF",
"w. c #B0A7C2",
"e. c #B1A7C2",
"r. c #B1A6C4",
"t. c #B0A7C6",
"y. c #B9AFC7",
"u. c #B9AFC8",
"i. c #D6D3C0",
"p. c #D9D1DC",
"a. c #E3DFD4",
"s. c #E3DFD6",
"d. c #EFECC1",
"f. c #EBE7CA",
"g. c #E8E3CF",
"h. c #EBE8C9",
"j. c #F2EFC2",
"k. c #F1F0C0",
"l. c #F3F1C0",
"z. c #F3F3C1",
"x. c #F5F1C1",
"c. c #F5F3C0",
"v. c #F4F2C1",
"b. c #F4F2C2",
"n. c #F5F3C2",
"m. c #F5F3C3",
"M. c #E7E1D3",
"N. c #E8E0D3",
/* pixels */
",.,.,.,.,.,.,.,.,.,.,.:.,.4.,.,.,.,.1.,.,.,.,.,.,.,.,.,.,.,.,.,.",
",.,.,.,.,.,.,.,.1.,.,.,.,.,.,.,.5.,.,.,.,.,.,.5.,.,.,.,.,.,.,.,.",
",.,.,.,.,.,.5.,.,.,.5.,.1.,.,.,.,.,.,.,.,.5.,.,.,.5.,.,.,.,.,.,.",
"4.4.,.,.,.,.,.:.,.,.,.1.,.,.5.,.,.,.,.,.,.,.,.,.:.,.,.,.,.,.4.4.",
"1.,.5.3.,.,.,.g u y t y p | 5.,.,.,.,.1.j y y y g ,.,.,.3.5.,.1.",
",.,.,.,.,.O.( a q q q , % f ~ ~ ~ ~ ^ ~ s r q 0 a ( O.,.,.,.,.,.",
",.2.,.,.,./ + P 8.8.7.K   . X o X X X @ J 8.8.d.P + / ,.,.,.2.,.",
",.,.,.,.,.~ X I z.v.x.%.Q E e.w.r.t.E W %.c.v.v.I X ~ ,.,.,.,.,.",
",.<.,.,.,.~ . I m.v.v.l.j.g.s.a.a.s.g.j.l.v.v.n.I . ~ ,.,.,.<.,.",
",.,.,.,.,./ $ L k.v.v.v.x.v.v.v.v.v.v.x.0.v.v.k.L $ / ,.,.,.,.,.",
",.1.,.5.,.O.! a F v.v.l.v.v.x.l.l.x.v.v.l.v.v.F a ! O.,.5.,.1.,.",
",.,.5.,.,.+.g : x v.v.v.v.v.v.v.v.v.v.v.v.v.v.x : g +.,.,.5.,.,.",
",.,.,.,.,.) & X z v.v.v.v.v.x.v.v.x.v.v.v.v.v.z X & ) ,.,.,.,.,.",
"<.,.<.,.,.&.' 3 x v.v.v.v.v.x.v.v.x.v.v.v.v.v.x 3 ' &.,.,.<.,.<.",
",.1.,.,.:.} d - x v.v.v.v.b.v.v.v.v.b.v.v.v.v.x - d } :.,.,.1.,.",
"3.4.:.1.3.` ; O x 0.v.n.v.v.v.v.v.v.v.v.n.v.0.x O ; ` 3.1.:.4.3.",
"<.,.,.5.,.=.{ 8 x q.v.v.v.v.v.v.v.0.v.v.v.x.x.x 7 { -.,.5.,.4.,.",
",.,.,.,.,.,.,.H M B B Z Y Y U Y Y U Y Y Z V B M H ,.,.,.,.,.,.,.",
",.,.*.,.,.,.<.<./ > + * < 2 < < < < 2 < * + > / ,.<.,.,.,.:.,.,.",
"1.,.5.,.,.,.2.,.;. .4 * < < 1 < < 1 < < * 4 ..;.,.,.,.,.3.5.,.,.",
",.,.,.,.,.,.,.,.] i A R X.o.m = = m o.X.R A i ] ,.,.,.,.,.,.,.,.",
",.5.,.<.,.,.,.,.l # y.N.9.#.D q q D #.9.N.y.# k ,.,.,.,.<.,.5.,.",
",.,.,.<.4.,.,.,.k # u.M.6.9 C 8.8.C 9 6.M.u.# k ,.,.,.4.<.,.,.,.",
"1.,.,.1.,.1.,.,.+.h v T 8.@.$.v.v.$.@.8.T v h +.,.,.1.,.1.3.,.,.",
",.,.,.,.,.,.,.,.,.;.5 n h.f.i.I I i.f.h.n 5 ;.,.,.,.,.,.,.,.,.,.",
",.,.,.,.,.,.,.,.,.;.6 b p.p.S X X S p.p.b 6 ;.,.,.,.,.,.,.,.,.,.",
",.,.,.,.,.,.,.,.,.>.[ N w e c ^ ^ c e w N [ >.,.,.,.,.,.,.,.,.,.",
",.,.,.,.,.,.,.,.,.,.,._ y y G ,.,.G y y _ ,.,.,.,.,.,.,.,.,.,.,.",
",.,.,.,.,.,.,.,.,.,.5.,.,.1.1.,.,.1.1.,.,.5.,.,.,.,.,.,.,.,.,.,.",
",.,.,.,.,.,.,.,.,.,.1.,.5.,.,.,.,.,.,.5.,.1.,.,.,.,.,.,.,.,.,.,.",
",.,.,.,.,.,.,.,.4.,.,.,.,.,.,.,.,.,.,.,.,.,.,.4.,.,.,.,.,.,.,.,.",
",.,.,.,.,.,.,.,.1.,.,.,.,.,.,.5.5.,.,.,.,.,.,.1.,.,.,.,.,.,.,.,."
};
