/* XPM */
static char *up4_resized[] = {
/* columns rows colors chars-per-pixel */
"32 32 172 2 ",
"   c #5B4E93",
".  c #615293",
"X  c #635593",
"o  c #635795",
"O  c #675795",
"+  c #665893",
"@  c #6A5D93",
"#  c #6A5D95",
"$  c #675B9B",
"%  c #695A9B",
"&  c #736394",
"*  c #736296",
"=  c #756594",
"-  c #746795",
";  c #766697",
":  c #756896",
">  c #73699E",
",  c #7E6D99",
"<  c #7C719B",
"1  c #7D729C",
"2  c #7D729D",
"3  c #7F749E",
"4  c #6E64A3",
"5  c #6F65A4",
"6  c #776AA0",
"7  c #776EA3",
"8  c #776EA5",
"9  c #7A6BA2",
"0  c #796FA1",
"q  c #766CA9",
"w  c #776DAA",
"e  c #827297",
"r  c #867597",
"t  c #8B7B96",
"y  c #857498",
"u  c #877698",
"i  c #847A9D",
"p  c #867C9F",
"a  c #8A7B98",
"s  c #8B7B98",
"d  c #8A7F9D",
"f  c #907D99",
"g  c #907D9B",
"h  c #8173A6",
"j  c #8074A6",
"k  c #857AA2",
"l  c #817BAB",
"z  c #827AAB",
"x  c #8379AD",
"c  c #827AAD",
"v  c #837BAE",
"b  c #887CAC",
"n  c #8A7EAC",
"m  c #95819A",
"M  c #9B8A9A",
"N  c #9F8D9B",
"B  c #A5919C",
"V  c #A8949D",
"C  c #AE9B9F",
"Z  c #B4A09F",
"A  c #B6A19E",
"S  c #B7A29F",
"D  c #B8A39E",
"F  c #8E84A6",
"G  c #9086A1",
"H  c #9085A3",
"J  c #9187A2",
"K  c #948AA2",
"L  c #978EA3",
"P  c #998DA1",
"I  c #9B8EA0",
"U  c #9D8EA3",
"Y  c #9687A8",
"T  c #9184AF",
"R  c #968DA8",
"E  c #948DAE",
"W  c #958EAF",
"Q  c #9C94AC",
"!  c #A796A0",
"~  c #A694A2",
"^  c #AC98A3",
"/  c #A096AF",
"(  c #A199A8",
")  c #A094B8",
"_  c #A9A2AA",
"`  c #B5A1A0",
"'  c #BBA7A0",
"]  c #B6AEAC",
"[  c #B7B2AE",
"{  c #BEBAAF",
"}  c #A9A0BF",
"|  c #B1AAB2",
" . c #BAB4B6",
".. c #C1AB9E",
"X. c #C1ABA0",
"o. c #C2AAA0",
"O. c #C6B0A2",
"+. c #C7B0A2",
"@. c #C9B4A3",
"#. c #CBB4A2",
"$. c #CDB7A2",
"%. c #CFB6A2",
"&. c #CDB6A4",
"*. c #D3BBA3",
"=. c #D6BFA0",
"-. c #D7BDA2",
";. c #D6BEA2",
":. c #D4BCA4",
">. c #D9C1A5",
",. c #DCC3A4",
"<. c #DFC7A5",
"1. c #C9C6B3",
"2. c #CBC6B3",
"3. c #CBC5B5",
"4. c #D2CEB3",
"5. c #D1CDB4",
"6. c #D2CEB5",
"7. c #D0CABA",
"8. c #D4D0B7",
"9. c #D8D5B6",
"0. c #D8D4B7",
"q. c #D3D1B8",
"w. c #D9D5BA",
"e. c #E7CFA3",
"r. c #E1C9A5",
"t. c #E4CAA5",
"y. c #E5CCA4",
"u. c #E5CEA5",
"i. c #E7CEA5",
"p. c #E6CFA5",
"a. c #E7CEA6",
"s. c #EACFA4",
"d. c #E8CFA6",
"f. c #E8CFA7",
"g. c #EACEA6",
"h. c #E7D0A6",
"j. c #E7D0A7",
"k. c #E8D0A4",
"l. c #E9D0A7",
"z. c #E9D0A8",
"x. c #E1DFB9",
"c. c #E1DEBB",
"v. c #E1DEBD",
"b. c #E6E4BE",
"n. c #E9E7BE",
"m. c #EEEDBD",
"M. c #EFECBF",
"N. c #EEEDBF",
"B. c #F4F2BF",
"V. c #B1A7C2",
"C. c #BBB1CA",
"Z. c #D6D3C0",
"A. c #D9D2DA",
"S. c #D9D1DC",
"D. c #DDD6DD",
"F. c #E3DFC2",
"G. c #E1DCD6",
"H. c #E8E5C6",
"J. c #EFEEC0",
"K. c #EDEAC7",
"L. c #EEECC6",
"P. c #EBE7CA",
"I. c #EBE8C9",
"U. c #F1F0C0",
"Y. c #F3F1C0",
"T. c #F3F1C1",
"R. c #F3F3C1",
"E. c #F5F1C1",
"W. c #F4F2C1",
"Q. c #F4F2C2",
"!. c #F5F3C2",
"~. c #F1F0C4",
/* pixels */
"p.d.d.d.d.d.d.h.d.d.l.d.g.d.k.d.d.k.d.g.d.l.d.d.h.d.d.d.d.d.d.p.",
"d.k.d.d.d.d.d.g.d.d.l.g.d.k.l.k.k.l.k.d.g.l.d.d.g.d.d.d.d.d.k.d.",
"k.d.d.k.d.d.d.h.d.d.d.f.d.d.d.d.d.d.d.d.f.d.d.d.h.d.d.d.k.d.d.k.",
"d.d.d.l.k.d.d.h.d.d.d.d.d.k.d.g.g.d.k.d.d.d.d.d.h.d.d.k.l.d.d.d.",
"l.d.d.l.d.d.d.l.#.m m m M ;.d.g.g.d.;.M m m m #.l.d.d.d.l.d.d.l.",
"d.k.d.e.d.d.d.$.C p p p d ` :.d.d.:.` d p p p C $.d.d.d.e.d.k.d.",
"d.d.d.d.d.i.d.g J J.N.M.x.3 N d.d.N 3 x.M.N.J.J g d.i.d.d.d.d.d.",
"d.d.k.d.d.d.d.a G W.W.W.b.2 & s s & 2 b.W.W.W.G a d.d.d.d.k.d.d.",
"h.d.d.d.f.d.f.s G B.W.W.n./ b b b b / n.W.W.B.G s f.d.f.d.d.d.h.",
"g.d.d.f.d.d.l.s H W.Q.W.~.G.D.D.D.D.G.~.W.Q.W.H s l.d.d.f.d.d.g.",
"d.l.d.d.d.g.d.t G W.W.W.T.L.K.K.K.K.L.T.W.W.W.G s d.g.d.d.d.l.d.",
"d.d.l.d.d.d.d.s G W.W.W.W.W.Y.W.W.Y.W.W.W.W.W.G s d.d.d.d.l.d.k.",
"d.l.d.d.d.u.,.u G W.W.W.!.W.W.W.W.W.W.!.W.W.W.G u ,.u.d.d.d.l.d.",
"d.d.d.g.g.@., + G E.W.W.W.W.W.Y.Y.W.W.W.W.W.E.G + , @.g.g.d.d.d.",
"f.d.d.d.d.:.N & G W.W.W.W.W.W.W.W.W.W.W.W.W.W.G * N :.d.d.d.d.d.",
"d.d.d.d.g.r.*.y G W.W.W.W.W.W.W.W.W.W.W.W.W.W.G y *.r.g.d.d.d.d.",
"f.d.d.d.l.+.= X G W.W.W.W.W.W.W.E.E.W.W.W.T.W.G X : +.d.d.d.d.d.",
"d.d.d.d.d.-.! ; G E.E.R.W.Q.W.R.W.W.W.W.Y.E.W.G - V =.d.d.i.f.d.",
"d.d.j.k.f.d.d.s i 5.6.8.w.w.w.w.w.w.w.w.q.5.4.P N d.d.d.d.d.f.f.",
"d.d.l.d.k.k.i.s . # # > c l x v z c c c > @ # Z <.d.d.d.d.d.d.d.",
"d.d.i.k.d.d.d.s 6 } | Q w w 4 $ % 5 w q $     D d.g.d.d.d.d.d.d.",
"d.d.i.d.d.d.d.B Y C.F.7.E 8 0 p p 0 7 W F k j ^ %.d.d.d.d.g.d.d.",
"d.d.d.d.d.f.d.y.A o 3.U.c.1 ( m.N.( < v.M.H.A.n f s.d.k.l.k.l.d.",
"d.d.h.d.d.d.d.i.>.S I [ N.1.9.B.W.0.] K 2.K.D.b s d.d.i.d.p.d.d.",
"d.d.d.d.d.d.d.d.d.t.e R I.P.Z.{ { { _ O L  .V.9 a d.d.d.d.k.d.d.",
"d.d.d.d.d.d.d.d.d.t.r T S.S.) . . . . . . . . . g d.i.d.d.d.d.d.",
"d.d.d.d.d.d.d.d.d.a.&.~ h j U o...X.X.X.X.X.X.X.$.d.d.d.e.d.k.d.",
"d.d.d.d.d.d.d.d.d.d.d.O.m m ' d.i.d.d.k.d.d.d.d.l.d.d.d.l.d.d.l.",
"d.d.d.d.d.d.d.d.d.d.l.d.d.g.g.d.d.d.d.d.d.d.z.d.h.d.d.k.l.d.d.d.",
"d.d.d.d.d.d.d.d.d.d.g.d.l.d.d.d.d.l.d.d.d.d.d.d.h.d.d.d.k.d.d.k.",
"d.d.d.d.d.d.d.d.k.d.d.d.d.d.d.d.d.d.d.d.d.l.d.d.g.d.d.d.d.d.k.d.",
"d.d.d.d.d.d.d.d.g.d.d.d.d.d.d.l.d.d.l.d.i.d.d.e.h.d.d.d.d.d.d.p."
};
